<?xml version="1.0" standalone="no"?>
<!DOCTYPE svg PUBLIC "-//W3C//DTD SVG 20001102//EN" "http://www.w3.org/TR/2000/CR-SVG-20001102/DTD/svg-20001102.dtd">
<svg xmlns="http://www.w3.org/2000/svg" width="2291" x="64" y="401" height="3202" id="/Users/maartenkole/Downloads/Combined Export" >
 <g style="stroke:rgb(0,0,0);stroke-width:0.9;fill:none;" />
 <g style="stroke:rgb(0,0,0);stroke-width:0.9;fill:none;" >
  <text x="-1673" y="109" transform="matrix(6.12323e-17,-1,1,6.12323e-17,0,110)" style="fill:rgb(0,0,0);stroke-width:0;font-size:50;font-style:normal;font-weight:400;font-family:Arial;" >Column #2</text>
 </g>
 <g style="stroke:rgb(0,0,0);stroke-width:0.9;fill:none;" >
  <polyline points="97 3091 97 3091 97 3091 98 3091 98 3091 99 3091 99 3091 100 3091 100 3091 101 3091 101 3091 102 3091 103 3091 103 3091 104 3091 104 3091 105 3091 105 3091 106 3091 106 3091 107 3091 108 3091 108 3091 109 3091 109 3091 110 3091 110 3091 111 3091 111 3091 112 3091 112 3091 113 3091 114 3091 114 3091 115 3091 115 3091 116 3091 116 3091 117 3091 117 3091 118 3091 118 3091 119 3091 120 3091 120 3091 121 3091 121 3091 122 3091 122 3091 123 3091 123 3091 124 3091 125 3091 125 3091 126 3091 126 3091 127 3091 127 3091 128 3090 128 3090 129 3090 129 3089 130 3089 131 3089 131 3088 132 3087 132 3086 133 3085 133 3084 134 3083 134 3082 135 3080 136 3079 136 3077 137 3075 137 3073 138 3070 138 3068 139 3065 139 3062 140 3059 140 3056 141 3052 142 3048 142 3044 143 3040 143 3036 144 3031 144 3026 145 3021 145 3016 146 3011 146 3005 147 2999 148 2993 148 2987 149 2980 149 2973 150 2966 150 2959 151 2952 151 2945 152 2937 153 2929 153 2921 154 2913 154 2904 155 2896 155 2887 156 2878 156 2869 157 2860 157 2851 158 2841 159 2832 159 2822 160 2812 160 2802 161 2792 161 2782 162 2771 162 2761 163 2750 163 2739 164 2729 165 2718 165 2707 166 2696 166 2685 167 2673 167 2662 168 2651 168 2639 169 2628 170 2616 170 2604 171 2593 171 2581 172 2569 172 2557 173 2545 173 2533 174 2521 174 2509 175 2497 176 2485 176 2473 177 2461 177 2448 178 2436 178 2424 179 2412 179 2399 180 2387 180 2375 181 2363 182 2350 182 2338 183 2326 183 2313 184 2301 184 2289 185 2276 185 2264 186 2252 187 2240 187 2227 188 2215 188 2203 189 2191 189 2179 190 2166 190 2154 191 2142 191 2130 192 2118 193 2106 193 2094 194 2082 194 2070 195 2058 195 2046 196 2034 196 2023 197 2011 197 1999 198 1987 199 1976 199 1964 200 1953 200 1941 201 1930 201 1918 202 1907 202 1895 203 1884 204 1873 204 1862 205 1850 205 1839 206 1828 206 1817 207 1806 207 1795 208 1784 208 1774 209 1763 210 1752 210 1741 211 1731 211 1720 212 1710 212 1699 213 1689 213 1679 214 1668 215 1658 215 1648 216 1638 216 1628 217 1618 217 1608 218 1598 218 1588 219 1578 219 1568 220 1559 221 1549 221 1540 222 1530 222 1521 223 1511 223 1502 224 1493 224 1484 225 1474 225 1465 226 1456 227 1447 227 1438 228 1430 228 1421 229 1412 229 1403 230 1395 230 1386 231 1378 232 1369 232 1361 233 1353 233 1344 234 1336 234 1328 235 1320 235 1312 236 1304 236 1296 237 1288 238 1280 238 1273 239 1265 239 1257 240 1250 240 1242 241 1235 241 1227 242 1220 242 1213 243 1206 244 1198 244 1191 245 1184 245 1177 246 1170 246 1164 247 1157 247 1150 248 1143 249 1137 249 1130 250 1124 250 1117 251 1111 251 1104 252 1098 252 1092 253 1085 253 1079 254 1073 255 1067 255 1061 256 1055 256 1049 257 1044 257 1038 258 1032 258 1026 259 1021 259 1015 260 1010 261 1004 261 999 262 993 262 988 263 983 263 978 264 972 264 967 265 962 266 957 266 952 267 947 267 943 268 938 268 933 269 928 269 924 270 919 270 915 271 910 272 906 272 901 273 897 273 892 274 888 274 884 275 880 275 876 276 871 276 867 277 863 278 859 278 856 279 852 279 848 280 844 280 840 281 837 281 833 282 829 283 826 283 822 284 819 284 815 285 812 285 809 286 805 286 802 287 799 287 796 288 793 289 790 289 786 290 783 290 780 291 778 291 775 292 772 292 769 293 766 294 763 294 761 295 758 295 755 296 753 296 750 297 748 297 745 298 743 298 741 299 738 300 736 300 734 301 731 301 729 302 727 302 725 303 723 303 721 304 719 304 717 305 715 306 713 306 711 307 709 307 707 308 705 308 703 309 702 309 700 310 698 311 697 311 695 312 694 312 692 313 691 313 689 314 688 314 686 315 685 315 683 316 682 317 681 317 680 318 678 318 677 319 676 319 675 320 674 320 673 321 672 321 671 322 670 323 669 323 668 324 667 324 666 325 665 325 664 326 663 326 663 327 662 328 661 328 661 329 660 329 659 330 659 330 658 331 657 331 657 332 656 332 656 333 655 334 655 334 655 335 654 335 654 336 653 336 653 337 653 337 653 338 652 338 652 339 652 340 652 340 652 341 651 341 651 342 651 342 651 343 651 343 651 344 651 345 651 345 651 346 651 346 651 347 651 347 652 348 652 348 652 349 652 349 652 350 653 351 653 351 653 352 653 352 654 353 654 353 654 354 655 354 655 355 656 355 656 356 656 357 657 357 657 358 658 358 658 359 659 359 659 360 660 360 661 361 661 362 662 362 662 363 663 363 664 364 664 364 665 365 666 365 667 366 667 366 668 367 669 368 670 368 670 369 671 369 672 370 673 370 674 371 675 371 676 372 677 373 677 373 678 374 679 374 680 375 681 375 682 376 683 376 684 377 685 377 686 378 688 379 689 379 690 380 691 380 692 381 693 381 694 382 695 382 697 383 698 383 699 384 700 385 701 385 703 386 704 386 705 387 706 387 708 388 709 388 710 389 712 390 713 390 714 391 716 391 717 392 718 392 720 393 721 393 723 394 724 394 725 395 727 396 728 396 730 397 731 397 733 398 734 398 736 399 737 399 739 400 740 400 742 401 743 402 745 402 746 403 748 403 749 404 751 404 753 405 754 405 756 406 757 407 759 407 761 408 762 408 764 409 766 409 767 410 769 410 771 411 772 411 774 412 776 413 777 413 779 414 781 414 783 415 784 415 786 416 788 416 790 417 791 417 793 418 795 419 797 419 799 420 800 420 802 421 804 421 806 422 808 422 810 423 811 424 813 424 815 425 817 425 819 426 821 426 823 427 824 427 826 428 828 428 830 429 832 430 834 430 836 431 838 431 840 432 842 432 844 433 845 433 847 434 849 434 851 435 853 436 855 436 857 437 859 437 861 438 863 438 865 439 867 439 869 440 871 441 873 441 875 442 877 442 879 443 881 443 883 444 885 444 887 445 889 445 891 446 893 447 895 447 897 448 899 448 902 449 904 449 906 450 908 450 910 451 912 452 914 452 916 453 918 453 920 454 922 454 924 455 926 455 929 456 931 456 933 457 935 458 937 458 939 459 941 459 943 460 945 460 948 461 950 461 952 462 954 462 956 463 958 464 960 464 962 465 965 465 967 466 969 466 971 467 973 467 975 468 977 469 980 469 982 470 984 470 986 471 988 471 990 472 992 472 995 473 997 473 999 474 1001 475 1003 475 1005 476 1008 476 1010 477 1012 477 1014 478 1016 478 1019 479 1021 479 1023 480 1025 481 1027 481 1029 482 1032 482 1034 483 1036 483 1038 484 1040 484 1043 485 1045 486 1047 486 1049 487 1051 487 1053 488 1056 488 1058 489 1060 489 1062 490 1064 490 1067 491 1069 492 1071 492 1073 493 1075 493 1078 494 1080 494 1082 495 1084 495 1086 496 1089 496 1091 497 1093 498 1095 498 1097 499 1100 499 1102 500 1104 500 1106 501 1108 501 1111 502 1113 503 1115 503 1117 504 1119 504 1122 505 1124 505 1126 506 1128 506 1130 507 1133 507 1135 508 1137 509 1139 509 1141 510 1144 510 1146 511 1148 511 1150 512 1152 512 1155 513 1157 513 1159 514 1161 515 1163 515 1166 516 1168 516 1170 517 1172 517 1174 518 1177 518 1179 519 1181 520 1183 520 1185 521 1188 521 1190 522 1192 522 1194 523 1196 523 1198 524 1201 524 1203 525 1205 526 1207 526 1209 527 1212 527 1214 528 1216 528 1218 529 1220 529 1222 530 1225 531 1227 531 1229 532 1231 532 1233 533 1235 533 1238 534 1240 534 1242 535 1244 535 1246 536 1248 537 1251 537 1253 538 1255 538 1257 539 1259 539 1261 540 1264 540 1266 541 1268 541 1270 542 1272 543 1274 543 1276 544 1279 544 1281 545 1283 545 1285 546 1287 546 1289 547 1291 548 1294 548 1296 549 1298 549 1300 550 1302 550 1304 551 1306 551 1309 552 1311 552 1313 553 1315 554 1317 554 1319 555 1321 555 1323 556 1326 556 1328 557 1330 557 1332 558 1334 558 1336 559 1338 560 1340 560 1342 561 1344 561 1347 562 1349 562 1351 563 1353 563 1355 564 1357 565 1359 565 1361 566 1363 566 1365 567 1367 567 1370 568 1372 568 1374 569 1376 569 1378 570 1380 571 1382 571 1384 572 1386 572 1388 573 1390 573 1392 574 1394 574 1397 575 1399 575 1401 576 1403 577 1405 577 1407 578 1409 578 1411 579 1413 579 1415 580 1417 580 1419 581 1421 582 1423 582 1425 583 1427 583 1429 584 1431 584 1433 585 1435 585 1437 586 1439 586 1441 587 1443 588 1445 588 1447 589 1449 589 1451 590 1453 590 1455 591 1457 591 1459 592 1461 592 1463 593 1465 594 1467 594 1469 595 1471 595 1473 596 1475 596 1477 597 1479 597 1481 598 1483 599 1485 599 1487 600 1489 600 1491 601 1493 601 1495 602 1497 602 1499 603 1501 603 1503 604 1505 605 1507 605 1509 606 1511 606 1513 607 1515 607 1517 608 1519 608 1521 609 1523 610 1525 610 1526 611 1528 611 1530 612 1532 612 1534 613 1536 613 1538 614 1540 614 1542 615 1544 616 1546 616 1548 617 1550 617 1551 618 1553 618 1555 619 1557 619 1559 620 1561 620 1563 621 1565 622 1567 622 1569 623 1570 623 1572 624 1574 624 1576 625 1578 625 1580 626 1582 627 1584 627 1585 628 1587 628 1589 629 1591 629 1593 630 1595 630 1597 631 1599 631 1600 632 1602 633 1604 633 1606 634 1608 634 1610 635 1611 635 1613 636 1615 636 1617 637 1619 637 1621 638 1622 639 1624 639 1626 640 1628 640 1630 641 1632 641 1633 642 1635 642 1637 643 1639 644 1641 644 1642 645 1644 645 1646 646 1648 646 1650 647 1652 647 1653 648 1655 648 1657 649 1659 650 1660 650 1662 651 1664 651 1666 652 1668 652 1669 653 1671 653 1673 654 1675 654 1676 655 1678 656 1680 656 1682 657 1684 657 1685 658 1687 658 1689 659 1691 659 1692 660 1694 661 1696 661 1698 662 1699 662 1701 663 1703 663 1704 664 1706 664 1708 665 1710 665 1711 666 1713 667 1715 667 1717 668 1718 668 1720 669 1722 669 1723 670 1725 670 1727 671 1729 671 1730 672 1732 673 1734 673 1735 674 1737 674 1739 675 1740 675 1742 676 1744 676 1746 677 1747 678 1749 678 1751 679 1752 679 1754 680 1756 680 1757 681 1759 681 1761 682 1762 682 1764 683 1766 684 1767 684 1769 685 1771 685 1772 686 1774 686 1775 687 1777 687 1779 688 1780 689 1782 689 1784 690 1785 690 1787 691 1789 691 1790 692 1792 692 1793 693 1795 693 1797 694 1798 695 1800 695 1802 696 1803 696 1805 697 1806 697 1808 698 1810 698 1811 699 1813 699 1814 700 1816 701 1818 701 1819 702 1821 702 1822 703 1824 703 1826 704 1827 704 1829 705 1830 706 1832 706 1834 707 1835 707 1837 708 1838 708 1840 709 1841 709 1843 710 1844 710 1846 711 1848 712 1849 712 1851 713 1852 713 1854 714 1855 714 1857 715 1858 715 1860 716 1862 716 1863 717 1865 718 1866 718 1868 719 1869 719 1871 720 1872 720 1874 721 1875 721 1877 722 1878 723 1880 723 1881 724 1883 724 1884 725 1886 725 1887 726 1889 726 1890 727 1892 727 1893 728 1895 729 1896 729 1898 730 1899 730 1901 731 1902 731 1904 732 1905 732 1907 733 1908 733 1910 734 1911 735 1913 735 1914 736 1916 736 1917 737 1919 737 1920 738 1922 738 1923 739 1925 740 1926 740 1927 741 1929 741 1930 742 1932 742 1933 743 1935 743 1936 744 1938 744 1939 745 1940 746 1942 746 1943 747 1945 747 1946 748 1948 748 1949 749 1950 749 1952 750 1953 750 1955 751 1956 752 1958 752 1959 753 1960 753 1962 754 1963 754 1965 755 1966 755 1967 756 1969 757 1970 757 1972 758 1973 758 1974 759 1976 759 1977 760 1979 760 1980 761 1981 761 1983 762 1984 763 1986 763 1987 764 1988 764 1990 765 1991 765 1992 766 1994 766 1995 767 1997 768 1998 768 1999 769 2001 769 2002 770 2003 770 2005 771 2006 771 2007 772 2009 772 2010 773 2011 774 2013 774 2014 775 2016 775 2017 776 2018 776 2020 777 2021 777 2022 778 2024 778 2025 779 2026 780 2028 780 2029 781 2030 781 2031 782 2033 782 2034 783 2035 783 2037 784 2038 785 2039 785 2041 786 2042 786 2043 787 2045 787 2046 788 2047 788 2049 789 2050 789 2051 790 2052 791 2054 791 2055 792 2056 792 2058 793 2059 793 2060 794 2061 794 2063 795 2064 795 2065 796 2067 797 2068 797 2069 798 2070 798 2072 799 2073 799 2074 800 2075 800 2077 801 2078 802 2079 802 2080 803 2082 803 2083 804 2084 804 2085 805 2087 805 2088 806 2089 806 2090 807 2092 808 2093 808 2094 809 2095 809 2097 810 2098 810 2099 811 2100 811 2102 812 2103 812 2104 813 2105 814 2107 814 2108 815 2109 815 2110 816 2111 816 2113 817 2114 817 2115 818 2116 819 2117 819 2119 820 2120 820 2121 821 2122 821 2124 822 2125 822 2126 823 2127 823 2128 824 2130 825 2131 825 2132 826 2133 826 2134 827 2135 827 2137 828 2138 828 2139 829 2140 829 2141 830 2143 831 2144 831 2145 832 2146 832 2147 833 2148 833 2150 834 2151 834 2152 835 2153 836 2154 836 2155 837 2157 837 2158 838 2159 838 2160 839 2161 839 2162 840 2163 840 2165 841 2166 842 2167 842 2168 843 2169 843 2170 844 2171 844 2173 845 2174 845 2175 846 2176 847 2177 847 2178 848 2179 848 2181 849 2182 849 2183 850 2184 850 2185 851 2186 851 2187 852 2188 853 2190 853 2191 854 2192 854 2193 855 2194 855 2195 856 2196 856 2197 857 2198 857 2200 858 2201 859 2202 859 2203 860 2204 860 2205 861 2206 861 2207 862 2208 862 2209 863 2210 864 2212 864 2213 865 2214 865 2215 866 2216 866 2217 867 2218 867 2219 868 2220 868 2221 869 2222 870 2223 870 2225 871 2226 871 2227 872 2228 872 2229 873 2230 873 2231 874 2232 874 2233 875 2234 876 2235 876 2236 877 2237 877 2238 878 2239 878 2240 879 2241 879 2243 880 2244 881 2245 881 2246 882 2247 882 2248 883 2249 883 2250 884 2251 884 2252 885 2253 885 2254 886 2255 887 2256 887 2257 888 2258 888 2259 889 2260 889 2261 890 2262 890 2263 891 2264 891 2265 892 2266 893 2267 893 2268 894 2269 894 2270 895 2271 895 2272 896 2273 896 2274 897 2275 898 2276 898 2277 899 2278 899 2279 900 2280 900 2281 901 2282 901 2283 902 2284 902 2285 903 2286 904 2287 904 2288 905 2289 905 2290 906 2291 906 2292 907 2293 907 2294 908 2295 908 2296 909 2297 910 2298 910 2299 911 2300 911 2301 912 2302 912 2303 913 2304 913 2305 914 2306 915 2307 915 2308 916 2309 916 2310 917 2311 917 2312 918 2313 918 2314 919 2315 919 2316 920 2316 921 2317 921 2318 922 2319 922 2320 923 2321 923 2322 924 2323 924 2324 925 2325 926 2326 926 2327 927 2328 927 2329 928 2330 928 2331 929 2332 929 2332 930 2333 930 2334 931 2335 932 2336 932 2337 933 2338 933 2339 934 2340 934 2341 935 2342 935 2343 936 2344 936 2344 937 2345 938 2346 938 2347 939 2348 939 2349 940 2350 940 2351 941 2352 941 2353 942 2354 943 2354 943 2355 944 2356 944 2357 945 2358 945 2359 946 2360 946 2361 947 2362 947 2363 948 2363 949 2364 949 2365 950 2366 950 2367 951 2368 951 2369 952 2370 952 2371 953 2371 953 2372 954 2373 955 2374 955 2375 956 2376 956 2377 957 2378 957 2378 958 2379 958 2380 959 2381 960 2382 960 2383 961 2384 961 2385 962 2385 962 2386 963 2387 963 2388 964 2389 964 2390 965 2391 966 2391 966 2392 967 2393 967 2394 968 2395 968 2396 969 2397 969 2397 970 2398 970 2399 971 2400 972 2401 972 2402 973 2402 973 2403 974 2404 974 2405 975 2406 975 2407 976 2408 977 2408 977 2409 978 2410 978 2411 979 2412 979 2413 980 2413 980 2414 981 2415 981 2416 982 2417 983 2417 983 2418 984 2419 984 2420 985 2421 985 2422 986 2422 986 2423 987 2424 987 2425 988 2426 989 2426 989 2427 990 2428 990 2429 991 2430 991 2431 992 2431 992 2432 993 2433 994 2434 994 2435 995 2435 995 2436 996 2437 996 2438 997 2439 997 2439 998 2440 998 2441 999 2442 1000 2442 1000 2443 1001 2444 1001 2445 1002 2446 1002 2446 1003 2447 1003 2448 1004 2449 1005 2450 1005 2450 1006 2451 1006 2452 1007 2453 1007 2453 1008 2454 1008 2455 1009 2456 1009 2457 1010 2457 1011 2458 1011 2459 1012 2460 1012 2460 1013 2461 1013 2462 1014 2463 1014 2464 1015 2464 1015 2465 1016 2466 1017 2467 1017 2467 1018 2468 1018 2469 1019 2470 1019 2470 1020 2471 1020 2472 1021 2473 1022 2473 1022 2474 1023 2475 1023 2476 1024 2476 1024 2477 1025 2478 1025 2479 1026 2479 1026 2480 1027 2481 1028 2482 1028 2482 1029 2483 1029 2484 1030 2485 1030 2485 1031 2486 1031 2487 1032 2487 1032 2488 1033 2489 1034 2490 1034 2490 1035 2491 1035 2492 1036 2493 1036 2493 1037 2494 1037 2495 1038 2496 1039 2496 1039 2497 1040 2498 1040 2498 1041 2499 1041 2500 1042 2501 1042 2501 1043 2502 1043 2503 1044 2503 1045 2504 1045 2505 1046 2506 1046 2506 1047 2507 1047 2508 1048 2508 1048 2509 1049 2510 1049 2511 1050 2511 1051 2512 1051 2513 1052 2513 1052 2514 1053 2515 1053 2515 1054 2516 1054 2517 1055 2518 1056 2518 1056 2519 1057 2520 1057 2520 1058 2521 1058 2522 1059 2522 1059 2523 1060 2524 1060 2524 1061 2525 1062 2526 1062 2527 1063 2527 1063 2528 1064 2529 1064 2529 1065 2530 1065 2531 1066 2531 1066 2532 1067 2533 1068 2533 1068 2534 1069 2535 1069 2535 1070 2536 1070 2537 1071 2537 1071 2538 1072 2539 1073 2539 1073 2540 1074 2541 1074 2541 1075 2542 1075 2543 1076 2543 1076 2544 1077 2545 1077 2545 1078 2546 1079 2547 1079 2547 1080 2548 1080 2549 1081 2549 1081 2550 1082 2551 1082 2551 1083 2552 1084 2553 1084 2553 1085 2554 1085 2555 1086 2555 1086 2556 1087 2556 1087 2557 1088 2558 1088 2558 1089 2559 1090 2560 1090 2560 1091 2561 1091 2562 1092 2562 1092 2563 1093 2564 1093 2564 1094 2565 1094 2565 1095 2566 1096 2567 1096 2567 1097 2568 1097 2569 1098 2569 1098 2570 1099 2571 1099 2571 1100 2572 1101 2572 1101 2573 1102 2574 1102 2574 1103 2575 1103 2576 1104 2576 1104 2577 1105 2577 1105 2578 1106 2579 1107 2579 1107 2580 1108 2581 1108 2581 1109 2582 1109 2582 1110 2583 1110 2584 1111 2584 1111 2585 1112 2585 1113 2586 1113 2587 1114 2587 1114 2588 1115 2589 1115 2589 1116 2590 1116 2590 1117 2591 1118 2592 1118 2592 1119 2593 1119 2593 1120 2594 1120 2595 1121 2595 1121 2596 1122 2596 1122 2597 1123 2598 1124 2598 1124 2599 1125 2599 1125 2600 1126 2601 1126 2601 1127 2602 1127 2602 1128 2603 1128 2603 1129 2604 1130 2605 1130 2605 1131 2606 1131 2606 1132 2607 1132 2608 1133 2608 1133 2609 1134 2609 1135 2610 1135 2610 1136 2611 1136 2612 1137 2612 1137 2613 1138 2613 1138 2614 1139 2615 1139 2615 1140 2616 1141 2616 1141 2617 1142 2617 1142 2618 1143 2619 1143 2619 1144 2620 1144 2620 1145 2621 1145 2621 1146 2622 1147 2623 1147 2623 1148 2624 1148 2624 1149 2625 1149 2625 1150 2626 1150 2626 1151 2627 1152 2628 1152 2628 1153 2629 1153 2629 1154 2630 1154 2630 1155 2631 1155 2631 1156 2632 1156 2633 1157 2633 1158 2634 1158 2634 1159 2635 1159 2635 1160 2636 1160 2636 1161 2637 1161 2638 1162 2638 1163 2639 1163 2639 1164 2640 1164 2640 1165 2641 1165 2641 1166 2642 1166 2642 1167 2643 1167 2643 1168 2644 1169 2645 1169 2645 1170 2646 1170 2646 1171 2647 1171 2647 1172 2648 1172 2648 1173 2649 1173 2649 1174 2650 1175 2650 1175 2651 1176 2652 1176 2652 1177 2653 1177 2653 1178 2654 1178 2654 1179 2655 1180 2655 1180 2656 1181 2656 1181 2657 1182 2657 1182 2658 1183 2658 1183 2659 1184 2659 1184 2660 1185 2660 1186 2661 1186 2661 1187 2662 1187 2662 1188 2663 1188 2664 1189 2664 1189 2665 1190 2665 1190 2666 1191 2666 1192 2667 1192 2667 1193 2668 1193 2668 1194 2669 1194 2669 1195 2670 1195 2670 1196 2671 1197 2671 1197 2672 1198 2672 1198 2673 1199 2673 1199 2674 1200 2674 1200 2675 1201 2675 1201 2676 1202 2676 1203 2677 1203 2677 1204 2678 1204 2678 1205 2679 1205 2679 1206 2680 1206 2680 1207 2681 1207 2681 1208 2682 1209 2682 1209 2683 1210 2683 1210 2684 1211 2684 1211 2685 1212 2685 1212 2686 1213 2686 1214 2687 1214 2687 1215 2687 1215 2688 1216 2688 1216 2689 1217 2689 1217 2690 1218 2690 1218 2691 1219 2691 1220 2692 1220 2692 1221 2693 1221 2693 1222 2694 1222 2694 1223 2695 1223 2695 1224 2696 1224 2696 1225 2697 1226 2697 1226 2698 1227 2698 1227 2698 1228 2699 1228 2699 1229 2700 1229 2700 1230 2701 1231 2701 1231 2702 1232 2702 1232 2703 1233 2703 1233 2704 1234 2704 1234 2705 1235 2705 1235 2705 1236 2706 1237 2706 1237 2707 1238 2707 1238 2708 1239 2708 1239 2709 1240 2709 1240 2710 1241 2710 1242 2711 1242 2711 1243 2711 1243 2712 1244 2712 1244 2713 1245 2713 1245 2714 1246 2714 1246 2715 1247 2715 1248 2716 1248 2716 1249 2716 1249 2717 1250 2717 1250 2718 1251 2718 1251 2719 1252 2719 1252 2720 1253 2720 1254 2720 1254 2721 1255 2721 1255 2722 1256 2722 1256 2723 1257 2723 1257 2724 1258 2724 1259 2724 1259 2725 1260 2725 1260 2726 1261 2726 1261 2727 1262 2727 1262 2727 1263 2728 1263 2728 1264 2729 1265 2729 1265 2730 1266 2730 1266 2731 1267 2731 1267 2731 1268 2732 1268 2732 1269 2733 1269 2733 1270 2734 1271 2734 1271 2734 1272 2735 1272 2735 1273 2736 1273 2736 1274 2737 1274 2737 1275 2737 1276 2738 1276 2738 1277 2739 1277 2739 1278 2739 1278 2740 1279 2740 1279 2741 1280 2741 1280 2742 1281 2742 1282 2742 1282 2743 1283 2743 1283 2744 1284 2744 1284 2744 1285 2745 1285 2745 1286 2746 1286 2746 1287 2747 1288 2747 1288 2747 1289 2748 1289 2748 1290 2749 1290 2749 1291 2749 1291 2750 1292 2750 1293 2751 1293 2751 1294 2751 1294 2752 1295 2752 1295 2753 1296 2753 1296 2753 1297 2754 1297 2754 1298 2755 1299 2755 1299 2756 1300 2756 1300 2756 1301 2757 1301 2757 1302 2758 1302 2758 1303 2758 1303 2759 1304 2759 1305 2759 1305 2760 1306 2760 1306 2761 1307 2761 1307 2761 1308 2762 1308 2762 1309 2763 1310 2763 1310 2763 1311 2764 1311 2764 1312 2765 1312 2765 1313 2765 1313 2766 1314 2766 1314 2767 1315 2767 1316 2767 1316 2768 1317 2768 1317 2768 1318 2769 1318 2769 1319 2770 1319 2770 1320 2770 1321 2771 1321 2771 1322 2772 1322 2772 1323 2772 1323 2773 1324 2773 1324 2773 1325 2774 1325 2774 1326 2775 1327 2775 1327 2775 1328 2776 1328 2776 1329 2776 1329 2777 1330 2777 1330 2778 1331 2778 1331 2778 1332 2779 1333 2779 1333 2779 1334 2780 1334 2780 1335 2781 1335 2781 1336 2781 1336 2782 1337 2782 1338 2782 1338 2783 1339 2783 1339 2784 1340 2784 1340 2784 1341 2785 1341 2785 1342 2785 1342 2786 1343 2786 1344 2786 1344 2787 1345 2787 1345 2788 1346 2788 1346 2788 1347 2789 1347 2789 1348 2789 1348 2790 1349 2790 1350 2790 1350 2791 1351 2791 1351 2791 1352 2792 1352 2792 1353 2793 1353 2793 1354 2793 1355 2794 1355 2794 1356 2794 1356 2795 1357 2795 1357 2795 1358 2796 1358 2796 1359 2796 1359 2797 1360 2797 1361 2798 1361 2798 1362 2798 1362 2799 1363 2799 1363 2799 1364 2800 1364 2800 1365 2800 1365 2801 1366 2801 1367 2801 1367 2802 1368 2802 1368 2802 1369 2803 1369 2803 1370 2803 1370 2804 1371 2804 1372 2804 1372 2805 1373 2805 1373 2805 1374 2806 1374 2806 1375 2806 1375 2807 1376 2807 1376 2807 1377 2808 1378 2808 1378 2808 1379 2809 1379 2809 1380 2809 1380 2810 1381 2810 1381 2811 1382 2811 1382 2811 1383 2812 1384 2812 1384 2812 1385 2812 1385 2813 1386 2813 1386 2813 1387 2814 1387 2814 1388 2814 1389 2815 1389 2815 1390 2815 1390 2816 1391 2816 1391 2816 1392 2817 1392 2817 1393 2817 1393 2818 1394 2818 1395 2818 1395 2819 1396 2819 1396 2819 1397 2820 1397 2820 1398 2820 1398 2821 1399 2821 1400 2821 1400 2822 1401 2822 1401 2822 1402 2823 1402 2823 1403 2823 1403 2824 1404 2824 1404 2824 1405 2824 1406 2825 1406 2825 1407 2825 1407 2826 1408 2826 1408 2826 1409 2827 1409 2827 1410 2827 1410 2828 1411 2828 1412 2828 1412 2829 1413 2829 1413 2829 1414 2830 1414 2830 1415 2830 1415 2830 1416 2831 1417 2831 1417 2831 1418 2832 1418 2832 1419 2832 1419 2833 1420 2833 1420 2833 1421 2834 1421 2834 1422 2834 1423 2834 1423 2835 1424 2835 1424 2835 1425 2836 1425 2836 1426 2836 1426 2837 1427 2837 1427 2837 1428 2837 1429 2838 1429 2838 1430 2838 1430 2839 1431 2839 1431 2839 1432 2840 1432 2840 1433 2840 1434 2840 1434 2841 1435 2841 1435 2841 1436 2842 1436 2842 1437 2842 1437 2843 1438 2843 1438 2843 1439 2843 1440 2844 1440 2844 1441 2844 1441 2845 1442 2845 1442 2845 1443 2845 1443 2846 1444 2846 1444 2846 1445 2847 1446 2847 1446 2847 1447 2848 1447 2848 1448 2848 1448 2848 1449 2849 1449 2849 1450 2849 1451 2850 1451 2850 1452 2850 1452 2850 1453 2851 1453 2851 1454 2851 1454 2852 1455 2852 1455 2852 1456 2852 1457 2853 1457 2853 1458 2853 1458 2854 1459 2854 1459 2854 1460 2854 1460 2855 1461 2855 1461 2855 1462 2855 1463 2856 1463 2856 1464 2856 1464 2857 1465 2857 1465 2857 1466 2857 1466 2858 1467 2858 1468 2858 1468 2859 1469 2859 1469 2859 1470 2859 1470 2860 1471 2860 1471 2860 1472 2860 1472 2861 1473 2861 1474 2861 1474 2862 1475 2862 1475 2862 1476 2862 1476 2863 1477 2863 1477 2863 1478 2863 1479 2864 1479 2864 1480 2864 1480 2865 1481 2865 1481 2865 1482 2865 1482 2866 1483 2866 1483 2866 1484 2866 1485 2867 1485 2867 1486 2867 1486 2867 1487 2868 1487 2868 1488 2868 1488 2869 1489 2869 1489 2869 1490 2869 1491 2870 1491 2870 1492 2870 1492 2870 1493 2871 1493 2871 1494 2871 1494 2871 1495 2872 1496 2872 1496 2872 1497 2872 1497 2873 1498 2873 1498 2873 1499 2873 1499 2874 1500 2874 1500 2874 1501 2874 1502 2875 1502 2875 1503 2875 1503 2876 1504 2876 1504 2876 1505 2876 1505 2877 1506 2877 1506 2877 1507 2877 1508 2878 1508 2878 1509 2878 1509 2878 1510 2879 1510 2879 1511 2879 1511 2879 1512 2880 1513 2880 1513 2880 1514 2880 1514 2881 1515 2881 1515 2881 1516 2881 1516 2882 1517 2882 1517 2882 1518 2882 1519 2883 1519 2883 1520 2883 1520 2883 1521 2884 1521 2884 1522 2884 1522 2884 1523 2885 1523 2885 1524 2885 1525 2885 1525 2885 1526 2886 1526 2886 1527 2886 1527 2886 1528 2887 1528 2887 1529 2887 1530 2887 1530 2888 1531 2888 1531 2888 1532 2888 1532 2889 1533 2889 1533 2889 1534 2889 1534 2890 1535 2890 1536 2890 1536 2890 1537 2891 1537 2891 1538 2891 1538 2891 1539 2891 1539 2892 1540 2892 1540 2892 1541 2892 1542 2893 1542 2893 1543 2893 1543 2893 1544 2894 1544 2894 1545 2894 1545 2894 1546 2895 1547 2895 1547 2895 1548 2895 1548 2895 1549 2896 1549 2896 1550 2896 1550 2896 1551 2897 1551 2897 1552 2897 1553 2897 1553 2898 1554 2898 1554 2898 1555 2898 1555 2898 1556 2899 1556 2899 1557 2899 1558 2899 1558 2900 1559 2900 1559 2900 1560 2900 1560 2900 1561 2901 1561 2901 1562 2901 1562 2901 1563 2902 1564 2902 1564 2902 1565 2902 1565 2902 1566 2903 1566 2903 1567 2903 1567 2903 1568 2904 1568 2904 1569 2904 1570 2904 1570 2904 1571 2905 1571 2905 1572 2905 1572 2905 1573 2906 1573 2906 1574 2906 1575 2906 1575 2906 1576 2907 1576 2907 1577 2907 1577 2907 1578 2908 1578 2908 1579 2908 1579 2908 1580 2908 1581 2909 1581 2909 1582 2909 1582 2909 1583 2909 1583 2910 1584 2910 1584 2910 1585 2910 1585 2911 1586 2911 1587 2911 1587 2911 1588 2911 1588 2912 1589 2912 1589 2912 1590 2912 1590 2912 1591 2913 1592 2913 1592 2913 1593 2913 1593 2914 1594 2914 1594 2914 1595 2914 1595 2914 1596 2915 1596 2915 1597 2915 1598 2915 1598 2915 1599 2916 1599 2916 1600 2916 1600 2916 1601 2916 1601 2917 1602 2917 1602 2917 1603 2917 1604 2917 1604 2918 1605 2918 1605 2918 1606 2918 1606 2918 1607 2919 1607 2919 1608 2919 1609 2919 1609 2919 1610 2920 1610 2920 1611 2920 1611 2920 1612 2920 1612 2921 1613 2921 1613 2921 1614 2921 1615 2921 1615 2922 1616 2922 1616 2922 1617 2922 1617 2922 1618 2923 1618 2923 1619 2923 1619 2923 1620 2923 1621 2924 1621 2924 1622 2924 1622 2924 1623 2924 1623 2925 1624 2925 1624 2925 1625 2925 1626 2925 1626 2926 1627 2926 1627 2926 1628 2926 1628 2926 1629 2927 1629 2927 1630 2927 1630 2927 1631 2927 1632 2928 1632 2928 1633 2928 1633 2928 1634 2928 1634 2929 1635 2929 1635 2929 1636 2929 1637 2929 1637 2929 1638 2930 1638 2930 1639 2930 1639 2930 1640 2930 1640 2931 1641 2931 1641 2931 1642 2931 1643 2931 1643 2932 1644 2932 1644 2932 1645 2932 1645 2932 1646 2933 1646 2933 1647 2933 1647 2933 1648 2933 1649 2933 1649 2934 1650 2934 1650 2934 1651 2934 1651 2934 1652 2935 1652 2935 1653 2935 1654 2935 1654 2935 1655 2935 1655 2936 1656 2936 1656 2936 1657 2936 1657 2936 1658 2937 1658 2937 1659 2937 1660 2937 1660 2937 1661 2937 1661 2938 1662 2938 1662 2938 1663 2938 1663 2938 1664 2939 1664 2939 1665 2939 1666 2939 1666 2939 1667 2939 1667 2940 1668 2940 1668 2940 1669 2940 1669 2940 1670 2941 1671 2941 1671 2941 1672 2941 1672 2941 1673 2941 1673 2942 1674 2942 1674 2942 1675 2942 1675 2942 1676 2942 1677 2943 1677 2943 1678 2943 1678 2943 1679 2943 1679 2943 1680 2944 1680 2944 1681 2944 1681 2944 1682 2944 1683 2945 1683 2945 1684 2945 1684 2945 1685 2945 1685 2945 1686 2946 1686 2946 1687 2946 1688 2946 1688 2946 1689 2946 1689 2947 1690 2947 1690 2947 1691 2947 1691 2947 1692 2947 1692 2948 1693 2948 1694 2948 1694 2948 1695 2948 1695 2948 1696 2949 1696 2949 1697 2949 1697 2949 1698 2949 1698 2949 1699 2950 1700 2950 1700 2950 1701 2950 1701 2950 1702 2950 1702 2951 1703 2951 1703 2951 1704 2951 1705 2951 1705 2951 1706 2952 1706 2952 1707 2952 1707 2952 1708 2952 1708 2952 1709 2953 1709 2953 1710 2953 1711 2953 1711 2953 1712 2953 1712 2954 1713 2954 1713 2954 1714 2954 1714 2954 1715 2954 1716 2955 1716 2955 1717 2955 1717 2955 1718 2955 1718 2955 1719 2955 1719 2956 1720 2956 1720 2956 1721 2956 1722 2956 1722 2956 1723 2957 1723 2957 1724 2957 1724 2957 1725 2957 1725 2957 1726 2958 1726 2958 1727 2958 1728 2958 1728 2958 1729 2958 1729 2958 1730 2959 1730 2959 1731 2959 1731 2959 1732 2959 1733 2959 1733 2960 1734 2960 1734 2960 1735 2960 1735 2960 1736 2960 1736 2960 1737 2961 1737 2961 1738 2961 1739 2961 1739 2961 1740 2961 1740 2962 1741 2962 1741 2962 1742 2962 1742 2962 1743 2962 1743 2962 1744 2963 1745 2963 1745 2963 1746 2963 1746 2963 1747 2963 1747 2963 1748 2964 1748 2964 1749 2964 1750 2964 1750 2964 1751 2964 1751 2965 1752 2965 1752 2965 1753 2965 1753 2965 1754 2965 1754 2965 1755 2966 1756 2966 1756 2966 1757 2966 1757 2966 1758 2966 1758 2966 1759 2967 1759 2967 1760 2967 1760 2967 1761 2967 1762 2967 1762 2967 1763 2968 1763 2968 1764 2968 1764 2968 1765 2968 1765 2968 1766 2968 1767 2969 1767 2969 1768 2969 1768 2969 1769 2969 1769 2969 1770 2969 1770 2970 1771 2970 1771 2970 1772 2970 1773 2970 1773 2970 1774 2970 1774 2971 1775 2971 1775 2971 1776 2971 1776 2971 1777 2971 1777 2971 1778 2972 1779 2972 1779 2972 1780 2972 1780 2972 1781 2972 1781 2972 1782 2973 1782 2973 1783 2973 1784 2973 1784 2973 1785 2973 1785 2973 1786 2974 1786 2974 1787 2974 1787 2974 1788 2974 1788 2974 1789 2974 1790 2975 1790 2975 1791 2975 1791 2975 1792 2975 1792 2975 1793 2975 1793 2975 1794 2976 1795 2976 1795 2976 1796 2976 1796 2976 1797 2976 1797 2976 1798 2977 1798 2977 1799 2977 1799 2977 1800 2977 1801 2977 1801 2977 1802 2977 1802 2978 1803 2978 1803 2978 1804 2978 1804 2978 1805 2978 1805 2978 1806 2979 1807 2979 1807 2979 1808 2979 1808 2979 1809 2979 1809 2979 1810 2979 1810 2980 1811 2980 1812 2980 1812 2980 1813 2980 1813 2980 1814 2980 1814 2980 1815 2981 1815 2981 1816 2981 1816 2981 1817 2981 1818 2981 1818 2981 1819 2982 1819 2982 1820 2982 1820 2982 1821 2982 1821 2982 1822 2982 1822 2982 1823 2983 1824 2983 1824 2983 1825 2983 1825 2983 1826 2983 1826 2983 1827 2983 1827 2984 1828 2984 1829 2984 1829 2984 1830 2984 1830 2984 1831 2984 1831 2984 1832 2985 1832 2985 1833 2985 1833 2985 1834 2985 1835 2985 1835 2985 1836 2985 1836 2986 1837 2986 1837 2986 1838 2986 1838 2986 1839 2986 1839 2986 1840 2986 1841 2987 1841 2987 1842 2987 1842 2987 1843 2987 1843 2987 1844 2987 1844 2987 1845 2988 1846 2988 1846 2988 1847 2988 1847 2988 1848 2988 1848 2988 1849 2988 1849 2988 1850 2989 1850 2989 1851 2989 1852 2989 1852 2989 1853 2989 1853 2989 1854 2989 1854 2990 1855 2990 1855 2990 1856 2990 1856 2990 1857 2990 1858 2990 1858 2990 1859 2990 1859 2991 1860 2991 1860 2991 1861 2991 1861 2991 1862 2991 1863 2991 1863 2991 1864 2992 1864 2992 1865 2992 1865 2992 1866 2992 1866 2992 1867 2992 1867 2992 1868 2992 1869 2993 1869 2993 1870 2993 1870 2993 1871 2993 1871 2993 1872 2993 1872 2993 1873 2993 1874 2994 1874 2994 1875 2994 1875 2994 1876 2994 1876 2994 1877 2994 1877 2994 1878 2995 1878 2995 1879 2995 1880 2995 1880 2995 1881 2995 1881 2995 1882 2995 1882 2995 1883 2996 1883 2996 1884 2996 1884 2996 1885 2996 1886 2996 1886 2996 1887 2996 1887 2996 1888 2997 1888 2997 1889 2997 1889 2997 1890 2997 1891 2997 1891 2997 1892 2997 1892 2997 1893 2998 1893 2998 1894 2998 1894 2998 1895 2998 1895 2998 1896 2998 1897 2998 1897 2998 1898 2998 1898 2999 1899 2999 1899 2999 1900 2999 1900 2999 1901 2999 1901 2999 1902 2999 1903 2999 1903 3000 1904 3000 1904 3000 1905 3000 1905 3000 1906 3000 1906 3000 1907 3000 1908 3000 1908 3001 1909 3001 1909 3001 1910 3001 1910 3001 1911 3001 1911 3001 1912 3001 1912 3001 1913 3001 1914 3002 1914 3002 1915 3002 1915 3002 1916 3002 1916 3002 1917 3002 1917 3002 1918 3002 1918 3003 1919 3003 1920 3003 1920 3003 1921 3003 1921 3003 1922 3003 1922 3003 1923 3003 1923 3003 1924 3004 1925 3004 1925 3004 1926 3004 1926 3004 1927 3004 1927 3004 1928 3004 1928 3004 1929 3004 1929 3005 1930 3005 1931 3005 1931 3005 1932 3005 1932 3005 1933 3005 1933 3005 1934 3005 1934 3005 1935 3006 1935 3006 1936 3006 1937 3006 1937 3006 1938 3006 1938 3006 1939 3006 1939 3006 1940 3006 1940 3007 1941 3007 1942 3007 1942 3007 1943 3007 1943 3007 1944 3007 1944 3007 1945 3007 1945 3007 1946 3008 1946 3008 1947 3008 1948 3008 1948 3008 1949 3008 1949 3008 1950 3008 1950 3008 1951 3008 1951 3008 1952 3009 1953 3009 1953 3009 1954 3009 1954 3009 1955 3009 1955 3009 1956 3009 1956 3009 1957 3009 1957 3010 1958 3010 1959 3010 1959 3010 1960 3010 1960 3010 1961 3010 1961 3010 1962 3010 1962 3010 1963 3010 1963 3011 1964 3011 1965 3011 1965 3011 1966 3011 1966 3011 1967 3011 1967 3011 1968 3011 1968 3011 1969 3012 1970 3012 1970 3012 1971 3012 1971 3012 1972 3012 1972 3012 1973 3012 1973 3012 1974 3012 1974 3012 1975 3013 1976 3013 1976 3013 1977 3013 1977 3013 1978 3013 1978 3013 1979 3013 1979 3013 1980 3013 1980 3013 1981 3014 1982 3014 1982 3014 1983 3014 1983 3014 1984 3014 1984 3014 1985 3014 1985 3014 1986 3014 1987 3014 1987 3015 1988 3015 1988 3015 1989 3015 1989 3015 1990 3015 1990 3015 1991 3015 1991 3015 1992 3015 1993 3015 1993 3015 1994 3016 1994 3016 1995 3016 1995 3016 1996 3016 1996 3016 1997 3016 1997 3016 1998 3016 1999 3016 1999 3016 2000 3017 2000 3017 2001 3017 2001 3017 2002 3017 2002 3017 2003 3017 2004 3017 2004 3017 2005 3017 2005 3017 2006 3017 2006 3018 2007 3018 2007 3018 2008 3018 2008 3018 2009 3018 2010 3018 2010 3018 2011 3018 2011 3018 2012 3018 2012 3018 2013 3019 2013 3019 2014 3019 2014 3019 2015 3019 2016 3019 2016 3019 2017 3019 2017 3019 2018 3019 2018 3019 2019 3020 2019 3020 2020 3020 2021 3020 2021 3020 2022 3020 2022 3020 2023 3020 2023 3020 2024 3020 2024 3020 2025 3020 2025 3020 2026 3021 2027 3021 2027 3021 2028 3021 2028 3021 2029 3021 2029 3021 2030 3021 2030 3021 2031 3021 2032 3021 2032 3021 2033 3022 2033 3022 2034 3022 2034 3022 2035 3022 2035 3022 2036 3022 2036 3022 2037 3022 2038 3022 2038 3022 2039 3022 2039 3023 2040 3023 2040 3023 2041 3023 2041 3023 2042 3023 2042 3023 2043 3023 2044 3023 2044 3023 2045 3023 2045 3023 2046 3023 2046 3024 2047 3024 2047 3024 2048 3024 2049 3024 2049 3024 2050 3024 2050 3024 2051 3024 2051 3024 2052 3024 2052 3024 2053 3024 2053 3025 2054 3025 2055 3025 2055 3025 2056 3025 2056 3025 2057 3025 2057 3025 2058 3025 2058 3025 2059 3025 2059 3025 2060 3025 2061 3026 2061 3026 2062 3026 2062 3026 2063 3026 2063 3026 2064 3026 2064 3026 2065 3026 2066 3026 2066 3026 2067 3026 2067 3026 2068 3027 2068 3027 2069 3027 2069 3027 2070 3027 2070 3027 2071 3027 2072 3027 2072 3027 2073 3027 2073 3027 2074 3027 2074 3027 2075 3028 2075 3028 2076 3028 2076 3028 2077 3028 2078 3028 2078 3028 2079 3028 2079 3028 2080 3028 2080 3028 2081 3028 2081 3028 2082 3028 2083 3029 2083 3029 2084 3029 2084 3029 2085 3029 2085 3029 2086 3029 2086 3029 2087 3029 2087 3029 2088 3029 2089 3029 2089 3029 2090 3029 2090 3030 2091 3030 2091 3030 2092 3030 2092 3030 2093 3030 2093 3030 2094 3030 2095 3030 2095 3030 2096 3030 2096 3030 2097 3030 2097 3030 2098 3031 2098 3031 2099 3031 2100 3031 2100 3031 2101 3031 2101 3031 2102 3031 2102 3031 2103 3031 2103 3031 2104 3031 2104 3031 2105 3031 2106 3031 2106 3032 2107 3032 2107 3032 2108 3032 2108 3032 2109 3032 2109 3032 2110 3032 2111 3032 2111 3032 2112 3032 2112 3032 2113 3032 2113 3032 2114 3033 2114 3033 2115 3033 2115 3033 2116 3033 2117 3033 2117 3033 2118 3033 2118 3033 2119 3033 2119 3033 2120 3033 2120 3033 2121 3033 2121 3033 2122 3034 2123 3034 2123 3034 2124 3034 2124 3034 2125 3034 2125 3034 2126 3034 2126 3034 2127 3034 2128 3034 2128 3034 2129 3034 2129 3034 2130 3034 2130 3035 2131 3035 2131 3035 2132 3035 2132 3035 2133 3035 2134 3035 2134 3035 2135 3035 2135 3035 2136 3035 2136 3035 2137 3035 2137 3035 2138 3035 2138 3036 2139 3036 2140 3036 2140 3036 2141 3036 2141 3036 2142 3036 2142 3036 2143 3036 2143 3036 2144 3036 2145 3036 2145 3036 2146 3036 2146 3036 2147 3036 2147 3037 2148 3037 2148 3037 2149 3037 2149 3037 2150 3037 2151 3037 2151 3037 2152 3037 2152 3037 2153 3037 2153 3037 2154 3037 2154 3037 2155 3037 2155 3037 2156 3038 2157 3038 2157 3038 2158 3038 2158 3038 2159 3038 2159 3038 2160 3038 2160 3038 2161 3038 2162 3038 2162 3038 2163 3038 2163 3038 2164 3038 2164 3038 2165 3039 2165 3039 2166 3039 2166 3039 2167 3039 2168 3039 2168 3039 2169 3039 2169 3039 2170 3039 2170 3039 2171 3039 2171 3039 2172 3039 2172 3039 2173 3039 2174 3039 2174 3040 2175 3040 2175 3040 2176 3040 2176 3040 2177 3040 2177 3040 2178 3040 2179 3040 2179 3040 2180 3040 2180 3040 2181 3040 2181 3040 2182 3040 2182 3040 2183 3040 2183 3041 2184 3041 2185 3041 2185 3041 2186 3041 2186 3041 2187 3041 2187 3041 2188 3041 2188 3041 2189 3041 2190 3041 2190 3041 2191 3041 2191 3041 2192 3041 2192 3041 2193 3042 2193 3042 2194 3042 2194 3042 2195 3042 2196 3042 2196 3042 2197 3042 2197 3042 2198 3042 2198 3042 2199 3042 2199 3042 2200 3042 2200 3042 2201 3042 2202 3042 2202 3042 2203 3043 2203 3043 2204 3043 2204 3043 2205 3043 2205 3043 2206 3043 2207 3043 2207 3043 2208 3043 2208 3043 2209 3043 2209 3043 2210 3043 2210 3043 2211 3043 2211 3043 2212 3043 2213 3044 2213 3044 2214 3044 2214 3044 2215 3044 2215 3044 2216 3044 2216 3044 2217 3044 2217 3044 2218 3044 2219 3044 2219 3044 2220 3044 2220 3044 2221 3044 2221 3044 2222 3044 2222 3045 2223 3045 2224 3045 2224 3045 2225 3045 2225 3045 2226 3045 2226 3045 2227 3045 2227 3045 2228 3045 2228 3045 2229 3045 2230 3045 2230 3045 2231 3045 2231 3045 2232 3045 2232 3045 2233 3046 2233 3046 2234 3046 2234 3046 2235 3046 2236 3046 2236 3046 2237 3046 2237 3046 2238 3046 2238 3046 2239 3046 2239 3046 2240 3046 2241 3046 2241 3046 2242 3046 2242 3046 2243 3046 2243 3047 2244 3047 2244 3047 2245 3047 2245 3047 2246 3047 2247 3047 2247 3047 2248 3047 2248 3047 2249 3047 2249 3047 2250 3047 2250 3047 2251 3047 2251 3047 2252 3047 2253 3047 2253 3047 2254 3047 2254 3048 2255 3048 2255 3048 2256 3048 2256 3048 2257 3048 2258 3048 2258 3048 2259 3048 2259 3048 2260 3048 2260 3048 2261 3048 2261 3048 2262 3048 2262 3048 2263 3048 2264 3048 2264 3048 2265 3048 2265 3049 2266 3049 2266 3049 2267 3049 2267 3049 2268 3049 2269 3049 2269 3049 2270 3049 2270 3049 2271 3049 2271 3049 2272 3049 2272 3049 2273 3049 2273 3049 2274 3049 2275 3049 2275 3049 2276 3049 2276 3049 2277 3050 2277 3050 2278 3050 2278 3050 2279 3050 2279 3050 2280 3050 2281 3050 2281 3050 2282 3050 2282 3050 2283 3050 2283 3050 2284 3050 2284 3050 2285 3050 2286 3050 2286 3050 2287 3050 2287 3050 2288 3050 2288 3051 2289 3051 2289 3051 2290 3051 2290 3051" transform="translate(0,110)" style="stroke:rgb(40,24,144);stroke-width:1;fill:none;" />
  <polyline points="97 3091 97 3091 97 3091 98 3091 98 3091 99 3091 99 3091 100 3091 100 3091 101 3091 101 3091 102 3091 103 3091 103 3091 104 3091 104 3091 105 3091 105 3091 106 3091 106 3091 107 3091 108 3091 108 3091 109 3091 109 3091 110 3091 110 3091 111 3091 111 3091 112 3091 112 3091 113 3091 114 3091 114 3091 115 3091 115 3091 116 3091 116 3091 117 3091 117 3091 118 3091 118 3091 119 3091 120 3091 120 3091 121 3091 121 3091 122 3091 122 3091 123 3091 123 3091 124 3091 125 3091 125 3091 126 3091 126 3091 127 3091 127 3091 128 3090 128 3090 129 3090 129 3090 130 3089 131 3089 131 3089 132 3088 132 3087 133 3086 133 3086 134 3085 134 3083 135 3082 136 3081 136 3079 137 3077 137 3075 138 3073 138 3071 139 3068 139 3066 140 3063 140 3060 141 3056 142 3053 142 3049 143 3045 143 3041 144 3037 144 3032 145 3027 145 3022 146 3017 146 3012 147 3006 148 3000 148 2994 149 2987 149 2981 150 2974 150 2967 151 2960 151 2952 152 2945 153 2937 153 2929 154 2920 154 2912 155 2903 155 2895 156 2885 156 2876 157 2867 157 2857 158 2847 159 2838 159 2827 160 2817 160 2807 161 2796 161 2785 162 2775 162 2764 163 2752 163 2741 164 2730 165 2718 165 2706 166 2695 166 2683 167 2671 167 2659 168 2646 168 2634 169 2621 170 2609 170 2596 171 2584 171 2571 172 2558 172 2545 173 2532 173 2519 174 2505 174 2492 175 2479 176 2466 176 2452 177 2439 177 2425 178 2411 178 2398 179 2384 179 2370 180 2357 180 2343 181 2329 182 2315 182 2301 183 2288 183 2274 184 2260 184 2246 185 2232 185 2218 186 2204 187 2190 187 2176 188 2162 188 2148 189 2134 189 2120 190 2106 190 2092 191 2078 191 2064 192 2050 193 2036 193 2022 194 2008 194 1994 195 1981 195 1967 196 1953 196 1939 197 1925 197 1912 198 1898 199 1884 199 1871 200 1857 200 1844 201 1830 201 1817 202 1803 202 1790 203 1776 204 1763 204 1750 205 1737 205 1723 206 1710 206 1697 207 1684 207 1671 208 1658 208 1645 209 1632 210 1620 210 1607 211 1594 211 1582 212 1569 212 1557 213 1544 213 1532 214 1519 215 1507 215 1495 216 1483 216 1471 217 1458 217 1446 218 1435 218 1423 219 1411 219 1399 220 1387 221 1376 221 1364 222 1353 222 1341 223 1330 223 1319 224 1308 224 1296 225 1285 225 1274 226 1263 227 1252 227 1242 228 1231 228 1220 229 1210 229 1199 230 1189 230 1178 231 1168 232 1158 232 1147 233 1137 233 1127 234 1117 234 1107 235 1097 235 1088 236 1078 236 1068 237 1059 238 1049 238 1040 239 1030 239 1021 240 1012 240 1003 241 994 241 984 242 976 242 967 243 958 244 949 244 940 245 932 245 923 246 915 246 906 247 898 247 890 248 882 249 873 249 865 250 857 250 849 251 842 251 834 252 826 252 818 253 811 253 803 254 796 255 789 255 781 256 774 256 767 257 760 257 753 258 746 258 739 259 732 259 725 260 718 261 712 261 705 262 699 262 692 263 686 263 679 264 673 264 667 265 661 266 655 266 648 267 643 267 637 268 631 268 625 269 619 269 614 270 608 270 602 271 597 272 592 272 586 273 581 273 576 274 570 274 565 275 560 275 555 276 550 276 545 277 540 278 536 278 531 279 526 279 522 280 517 280 513 281 508 281 504 282 499 283 495 283 491 284 487 284 483 285 479 285 475 286 471 286 467 287 463 287 459 288 455 289 451 289 448 290 444 290 441 291 437 291 434 292 430 292 427 293 424 294 420 294 417 295 414 295 411 296 408 296 405 297 402 297 399 298 396 298 393 299 390 300 388 300 385 301 382 301 380 302 377 302 375 303 372 303 370 304 367 304 365 305 363 306 360 306 358 307 356 307 354 308 352 308 350 309 348 309 346 310 344 311 342 311 340 312 338 312 336 313 335 313 333 314 331 314 330 315 328 315 326 316 325 317 323 317 322 318 321 318 319 319 318 319 317 320 315 320 314 321 313 321 312 322 311 323 310 323 309 324 307 324 306 325 306 325 305 326 304 326 303 327 302 328 301 328 301 329 300 329 299 330 298 330 298 331 297 331 297 332 296 332 296 333 295 334 295 334 294 335 294 335 293 336 293 336 293 337 293 337 292 338 292 338 292 339 292 340 292 340 291 341 291 341 291 342 291 342 291 343 291 343 291 344 291 345 291 345 292 346 292 346 292 347 292 347 292 348 293 348 293 349 293 349 293 350 294 351 294 351 294 352 295 352 295 353 296 353 296 354 297 354 297 355 298 355 298 356 299 357 299 357 300 358 301 358 301 359 302 359 303 360 303 360 304 361 305 362 306 362 306 363 307 363 308 364 309 364 310 365 311 365 312 366 313 366 314 367 314 368 315 368 316 369 317 369 319 370 320 370 321 371 322 371 323 372 324 373 325 373 326 374 327 374 329 375 330 375 331 376 332 376 333 377 335 377 336 378 337 379 338 379 340 380 341 380 342 381 344 381 345 382 347 382 348 383 349 383 351 384 352 385 354 385 355 386 357 386 358 387 360 387 361 388 363 388 364 389 366 390 367 390 369 391 370 391 372 392 374 392 375 393 377 393 378 394 380 394 382 395 383 396 385 396 387 397 388 397 390 398 392 398 394 399 395 399 397 400 399 400 401 401 402 402 404 402 406 403 408 403 410 404 411 404 413 405 415 405 417 406 419 407 421 407 423 408 425 408 426 409 428 409 430 410 432 410 434 411 436 411 438 412 440 413 442 413 444 414 446 414 448 415 450 415 452 416 454 416 456 417 458 417 460 418 462 419 464 419 466 420 468 420 470 421 472 421 474 422 476 422 478 423 480 424 482 424 485 425 487 425 489 426 491 426 493 427 495 427 497 428 499 428 501 429 504 430 506 430 508 431 510 431 512 432 514 432 517 433 519 433 521 434 523 434 525 435 527 436 530 436 532 437 534 437 536 438 539 438 541 439 543 439 545 440 547 441 550 441 552 442 554 442 556 443 559 443 561 444 563 444 565 445 568 445 570 446 572 447 574 447 577 448 579 448 581 449 584 449 586 450 588 450 590 451 593 452 595 452 597 453 600 453 602 454 604 454 607 455 609 455 611 456 614 456 616 457 618 458 621 458 623 459 625 459 627 460 630 460 632 461 634 461 637 462 639 462 641 463 644 464 646 464 649 465 651 465 653 466 656 466 658 467 660 467 663 468 665 469 667 469 670 470 672 470 674 471 677 471 679 472 682 472 684 473 686 473 689 474 691 475 693 475 696 476 698 476 700 477 703 477 705 478 708 478 710 479 712 479 715 480 717 481 719 481 722 482 724 482 727 483 729 483 731 484 734 484 736 485 738 486 741 486 743 487 746 487 748 488 750 488 753 489 755 489 758 490 760 490 762 491 765 492 767 492 769 493 772 493 774 494 777 494 779 495 781 495 784 496 786 496 788 497 791 498 793 498 796 499 798 499 800 500 803 500 805 501 807 501 810 502 812 503 815 503 817 504 819 504 822 505 824 505 826 506 829 506 831 507 834 507 836 508 838 509 841 509 843 510 845 510 848 511 850 511 853 512 855 512 857 513 860 513 862 514 864 515 867 515 869 516 871 516 874 517 876 517 878 518 881 518 883 519 886 520 888 520 890 521 893 521 895 522 897 522 900 523 902 523 904 524 907 524 909 525 911 526 914 526 916 527 918 527 921 528 923 528 925 529 928 529 930 530 932 531 935 531 937 532 939 532 942 533 944 533 946 534 949 534 951 535 953 535 956 536 958 537 960 537 962 538 965 538 967 539 969 539 972 540 974 540 976 541 979 541 981 542 983 543 985 543 988 544 990 544 992 545 995 545 997 546 999 546 1001 547 1004 548 1006 548 1008 549 1011 549 1013 550 1015 550 1017 551 1020 551 1022 552 1024 552 1026 553 1029 554 1031 554 1033 555 1035 555 1038 556 1040 556 1042 557 1045 557 1047 558 1049 558 1051 559 1053 560 1056 560 1058 561 1060 561 1062 562 1065 562 1067 563 1069 563 1071 564 1074 565 1076 565 1078 566 1080 566 1082 567 1085 567 1087 568 1089 568 1091 569 1094 569 1096 570 1098 571 1100 571 1102 572 1105 572 1107 573 1109 573 1111 574 1113 574 1116 575 1118 575 1120 576 1122 577 1124 577 1126 578 1129 578 1131 579 1133 579 1135 580 1137 580 1139 581 1142 582 1144 582 1146 583 1148 583 1150 584 1152 584 1155 585 1157 585 1159 586 1161 586 1163 587 1165 588 1167 588 1170 589 1172 589 1174 590 1176 590 1178 591 1180 591 1182 592 1185 592 1187 593 1189 594 1191 594 1193 595 1195 595 1197 596 1199 596 1201 597 1204 597 1206 598 1208 599 1210 599 1212 600 1214 600 1216 601 1218 601 1220 602 1222 602 1225 603 1227 603 1229 604 1231 605 1233 605 1235 606 1237 606 1239 607 1241 607 1243 608 1245 608 1247 609 1249 610 1251 610 1254 611 1256 611 1258 612 1260 612 1262 613 1264 613 1266 614 1268 614 1270 615 1272 616 1274 616 1276 617 1278 617 1280 618 1282 618 1284 619 1286 619 1288 620 1290 620 1292 621 1294 622 1296 622 1298 623 1300 623 1302 624 1304 624 1306 625 1308 625 1310 626 1312 627 1314 627 1316 628 1318 628 1320 629 1322 629 1324 630 1326 630 1328 631 1330 631 1332 632 1334 633 1336 633 1338 634 1340 634 1342 635 1344 635 1346 636 1348 636 1350 637 1352 637 1354 638 1356 639 1358 639 1360 640 1361 640 1363 641 1365 641 1367 642 1369 642 1371 643 1373 644 1375 644 1377 645 1379 645 1381 646 1383 646 1385 647 1387 647 1388 648 1390 648 1392 649 1394 650 1396 650 1398 651 1400 651 1402 652 1404 652 1406 653 1407 653 1409 654 1411 654 1413 655 1415 656 1417 656 1419 657 1421 657 1423 658 1424 658 1426 659 1428 659 1430 660 1432 661 1434 661 1436 662 1438 662 1439 663 1441 663 1443 664 1445 664 1447 665 1449 665 1450 666 1452 667 1454 667 1456 668 1458 668 1460 669 1461 669 1463 670 1465 670 1467 671 1469 671 1471 672 1472 673 1474 673 1476 674 1478 674 1480 675 1482 675 1483 676 1485 676 1487 677 1489 678 1491 678 1492 679 1494 679 1496 680 1498 680 1500 681 1501 681 1503 682 1505 682 1507 683 1508 684 1510 684 1512 685 1514 685 1516 686 1517 686 1519 687 1521 687 1523 688 1524 689 1526 689 1528 690 1530 690 1531 691 1533 691 1535 692 1537 692 1538 693 1540 693 1542 694 1544 695 1545 695 1547 696 1549 696 1551 697 1552 697 1554 698 1556 698 1557 699 1559 699 1561 700 1563 701 1564 701 1566 702 1568 702 1569 703 1571 703 1573 704 1575 704 1576 705 1578 706 1580 706 1581 707 1583 707 1585 708 1586 708 1588 709 1590 709 1592 710 1593 710 1595 711 1597 712 1598 712 1600 713 1602 713 1603 714 1605 714 1607 715 1608 715 1610 716 1612 716 1613 717 1615 718 1617 718 1618 719 1620 719 1622 720 1623 720 1625 721 1627 721 1628 722 1630 723 1631 723 1633 724 1635 724 1636 725 1638 725 1640 726 1641 726 1643 727 1645 727 1646 728 1648 729 1649 729 1651 730 1653 730 1654 731 1656 731 1657 732 1659 732 1661 733 1662 733 1664 734 1665 735 1667 735 1669 736 1670 736 1672 737 1673 737 1675 738 1677 738 1678 739 1680 740 1681 740 1683 741 1685 741 1686 742 1688 742 1689 743 1691 743 1692 744 1694 744 1696 745 1697 746 1699 746 1700 747 1702 747 1703 748 1705 748 1706 749 1708 749 1710 750 1711 750 1713 751 1714 752 1716 752 1717 753 1719 753 1720 754 1722 754 1723 755 1725 755 1727 756 1728 757 1730 757 1731 758 1733 758 1734 759 1736 759 1737 760 1739 760 1740 761 1742 761 1743 762 1745 763 1746 763 1748 764 1749 764 1751 765 1752 765 1754 766 1755 766 1757 767 1758 768 1760 768 1761 769 1763 769 1764 770 1766 770 1767 771 1769 771 1770 772 1772 772 1773 773 1775 774 1776 774 1778 775 1779 775 1780 776 1782 776 1783 777 1785 777 1786 778 1788 778 1789 779 1791 780 1792 780 1794 781 1795 781 1797 782 1798 782 1799 783 1801 783 1802 784 1804 785 1805 785 1807 786 1808 786 1810 787 1811 787 1812 788 1814 788 1815 789 1817 789 1818 790 1820 791 1821 791 1822 792 1824 792 1825 793 1827 793 1828 794 1829 794 1831 795 1832 795 1834 796 1835 797 1837 797 1838 798 1839 798 1841 799 1842 799 1844 800 1845 800 1846 801 1848 802 1849 802 1850 803 1852 803 1853 804 1855 804 1856 805 1857 805 1859 806 1860 806 1862 807 1863 808 1864 808 1866 809 1867 809 1868 810 1870 810 1871 811 1872 811 1874 812 1875 812 1877 813 1878 814 1879 814 1881 815 1882 815 1883 816 1885 816 1886 817 1887 817 1889 818 1890 819 1891 819 1893 820 1894 820 1895 821 1897 821 1898 822 1899 822 1901 823 1902 823 1903 824 1905 825 1906 825 1907 826 1909 826 1910 827 1911 827 1913 828 1914 828 1915 829 1917 829 1918 830 1919 831 1921 831 1922 832 1923 832 1924 833 1926 833 1927 834 1928 834 1930 835 1931 836 1932 836 1934 837 1935 837 1936 838 1937 838 1939 839 1940 839 1941 840 1943 840 1944 841 1945 842 1946 842 1948 843 1949 843 1950 844 1952 844 1953 845 1954 845 1955 846 1957 847 1958 847 1959 848 1960 848 1962 849 1963 849 1964 850 1965 850 1967 851 1968 851 1969 852 1970 853 1972 853 1973 854 1974 854 1975 855 1977 855 1978 856 1979 856 1980 857 1982 857 1983 858 1984 859 1985 859 1987 860 1988 860 1989 861 1990 861 1992 862 1993 862 1994 863 1995 864 1996 864 1998 865 1999 865 2000 866 2001 866 2003 867 2004 867 2005 868 2006 868 2007 869 2009 870 2010 870 2011 871 2012 871 2013 872 2015 872 2016 873 2017 873 2018 874 2019 874 2021 875 2022 876 2023 876 2024 877 2025 877 2027 878 2028 878 2029 879 2030 879 2031 880 2033 881 2034 881 2035 882 2036 882 2037 883 2038 883 2040 884 2041 884 2042 885 2043 885 2044 886 2045 887 2047 887 2048 888 2049 888 2050 889 2051 889 2052 890 2054 890 2055 891 2056 891 2057 892 2058 893 2059 893 2060 894 2062 894 2063 895 2064 895 2065 896 2066 896 2067 897 2068 898 2070 898 2071 899 2072 899 2073 900 2074 900 2075 901 2076 901 2078 902 2079 902 2080 903 2081 904 2082 904 2083 905 2084 905 2085 906 2087 906 2088 907 2089 907 2090 908 2091 908 2092 909 2093 910 2094 910 2095 911 2097 911 2098 912 2099 912 2100 913 2101 913 2102 914 2103 915 2104 915 2105 916 2107 916 2108 917 2109 917 2110 918 2111 918 2112 919 2113 919 2114 920 2115 921 2116 921 2117 922 2119 922 2120 923 2121 923 2122 924 2123 924 2124 925 2125 926 2126 926 2127 927 2128 927 2129 928 2130 928 2131 929 2133 929 2134 930 2135 930 2136 931 2137 932 2138 932 2139 933 2140 933 2141 934 2142 934 2143 935 2144 935 2145 936 2146 936 2147 937 2148 938 2149 938 2151 939 2152 939 2153 940 2154 940 2155 941 2156 941 2157 942 2158 943 2159 943 2160 944 2161 944 2162 945 2163 945 2164 946 2165 946 2166 947 2167 947 2168 948 2169 949 2170 949 2171 950 2172 950 2173 951 2174 951 2175 952 2176 952 2177 953 2178 953 2179 954 2180 955 2181 955 2182 956 2183 956 2184 957 2185 957 2186 958 2187 958 2188 959 2189 960 2190 960 2191 961 2192 961 2193 962 2194 962 2195 963 2196 963 2197 964 2198 964 2199 965 2200 966 2201 966 2202 967 2203 967 2204 968 2205 968 2206 969 2207 969 2208 970 2209 970 2210 971 2211 972 2212 972 2213 973 2214 973 2215 974 2216 974 2217 975 2218 975 2219 976 2220 977 2221 977 2222 978 2223 978 2224 979 2225 979 2226 980 2227 980 2228 981 2229 981 2230 982 2231 983 2232 983 2233 984 2234 984 2234 985 2235 985 2236 986 2237 986 2238 987 2239 987 2240 988 2241 989 2242 989 2243 990 2244 990 2245 991 2246 991 2247 992 2248 992 2249 993 2250 994 2251 994 2251 995 2252 995 2253 996 2254 996 2255 997 2256 997 2257 998 2258 998 2259 999 2260 1000 2261 1000 2262 1001 2263 1001 2264 1002 2264 1002 2265 1003 2266 1003 2267 1004 2268 1005 2269 1005 2270 1006 2271 1006 2272 1007 2273 1007 2274 1008 2275 1008 2275 1009 2276 1009 2277 1010 2278 1011 2279 1011 2280 1012 2281 1012 2282 1013 2283 1013 2284 1014 2284 1014 2285 1015 2286 1015 2287 1016 2288 1017 2289 1017 2290 1018 2291 1018 2292 1019 2292 1019 2293 1020 2294 1020 2295 1021 2296 1022 2297 1022 2298 1023 2299 1023 2300 1024 2300 1024 2301 1025 2302 1025 2303 1026 2304 1026 2305 1027 2306 1028 2307 1028 2307 1029 2308 1029 2309 1030 2310 1030 2311 1031 2312 1031 2313 1032 2314 1032 2314 1033 2315 1034 2316 1034 2317 1035 2318 1035 2319 1036 2320 1036 2320 1037 2321 1037 2322 1038 2323 1039 2324 1039 2325 1040 2326 1040 2326 1041 2327 1041 2328 1042 2329 1042 2330 1043 2331 1043 2331 1044 2332 1045 2333 1045 2334 1046 2335 1046 2336 1047 2337 1047 2337 1048 2338 1048 2339 1049 2340 1049 2341 1050 2342 1051 2342 1051 2343 1052 2344 1052 2345 1053 2346 1053 2347 1054 2347 1054 2348 1055 2349 1056 2350 1056 2351 1057 2351 1057 2352 1058 2353 1058 2354 1059 2355 1059 2356 1060 2356 1060 2357 1061 2358 1062 2359 1062 2360 1063 2360 1063 2361 1064 2362 1064 2363 1065 2364 1065 2365 1066 2365 1066 2366 1067 2367 1068 2368 1068 2369 1069 2369 1069 2370 1070 2371 1070 2372 1071 2373 1071 2373 1072 2374 1073 2375 1073 2376 1074 2377 1074 2377 1075 2378 1075 2379 1076 2380 1076 2380 1077 2381 1077 2382 1078 2383 1079 2384 1079 2384 1080 2385 1080 2386 1081 2387 1081 2388 1082 2388 1082 2389 1083 2390 1084 2391 1084 2391 1085 2392 1085 2393 1086 2394 1086 2395 1087 2395 1087 2396 1088 2397 1088 2398 1089 2398 1090 2399 1090 2400 1091 2401 1091 2402 1092 2402 1092 2403 1093 2404 1093 2405 1094 2405 1094 2406 1095 2407 1096 2408 1096 2408 1097 2409 1097 2410 1098 2411 1098 2411 1099 2412 1099 2413 1100 2414 1101 2414 1101 2415 1102 2416 1102 2417 1103 2417 1103 2418 1104 2419 1104 2420 1105 2420 1105 2421 1106 2422 1107 2423 1107 2423 1108 2424 1108 2425 1109 2426 1109 2426 1110 2427 1110 2428 1111 2429 1111 2429 1112 2430 1113 2431 1113 2431 1114 2432 1114 2433 1115 2434 1115 2434 1116 2435 1116 2436 1117 2437 1118 2437 1118 2438 1119 2439 1119 2440 1120 2440 1120 2441 1121 2442 1121 2442 1122 2443 1122 2444 1123 2445 1124 2445 1124 2446 1125 2447 1125 2447 1126 2448 1126 2449 1127 2450 1127 2450 1128 2451 1128 2452 1129 2452 1130 2453 1130 2454 1131 2455 1131 2455 1132 2456 1132 2457 1133 2457 1133 2458 1134 2459 1135 2459 1135 2460 1136 2461 1136 2462 1137 2462 1137 2463 1138 2464 1138 2464 1139 2465 1139 2466 1140 2466 1141 2467 1141 2468 1142 2469 1142 2469 1143 2470 1143 2471 1144 2471 1144 2472 1145 2473 1145 2473 1146 2474 1147 2475 1147 2475 1148 2476 1148 2477 1149 2477 1149 2478 1150 2479 1150 2479 1151 2480 1152 2481 1152 2482 1153 2482 1153 2483 1154 2484 1154 2484 1155 2485 1155 2486 1156 2486 1156 2487 1157 2488 1158 2488 1158 2489 1159 2490 1159 2490 1160 2491 1160 2492 1161 2492 1161 2493 1162 2494 1163 2494 1163 2495 1164 2496 1164 2496 1165 2497 1165 2498 1166 2498 1166 2499 1167 2500 1167 2500 1168 2501 1169 2502 1169 2502 1170 2503 1170 2503 1171 2504 1171 2505 1172 2505 1172 2506 1173 2507 1173 2507 1174 2508 1175 2509 1175 2509 1176 2510 1176 2511 1177 2511 1177 2512 1178 2513 1178 2513 1179 2514 1180 2514 1180 2515 1181 2516 1181 2516 1182 2517 1182 2518 1183 2518 1183 2519 1184 2520 1184 2520 1185 2521 1186 2521 1186 2522 1187 2523 1187 2523 1188 2524 1188 2525 1189 2525 1189 2526 1190 2527 1190 2527 1191 2528 1192 2528 1192 2529 1193 2530 1193 2530 1194 2531 1194 2532 1195 2532 1195 2533 1196 2533 1197 2534 1197 2535 1198 2535 1198 2536 1199 2536 1199 2537 1200 2538 1200 2538 1201 2539 1201 2540 1202 2540 1203 2541 1203 2541 1204 2542 1204 2543 1205 2543 1205 2544 1206 2544 1206 2545 1207 2546 1207 2546 1208 2547 1209 2547 1209 2548 1210 2549 1210 2549 1211 2550 1211 2550 1212 2551 1212 2552 1213 2552 1214 2553 1214 2553 1215 2554 1215 2555 1216 2555 1216 2556 1217 2556 1217 2557 1218 2558 1218 2558 1219 2559 1220 2559 1220 2560 1221 2561 1221 2561 1222 2562 1222 2562 1223 2563 1223 2563 1224 2564 1224 2565 1225 2565 1226 2566 1226 2566 1227 2567 1227 2568 1228 2568 1228 2569 1229 2569 1229 2570 1230 2570 1231 2571 1231 2572 1232 2572 1232 2573 1233 2573 1233 2574 1234 2575 1234 2575 1235 2576 1235 2576 1236 2577 1237 2577 1237 2578 1238 2579 1238 2579 1239 2580 1239 2580 1240 2581 1240 2581 1241 2582 1242 2582 1242 2583 1243 2584 1243 2584 1244 2585 1244 2585 1245 2586 1245 2586 1246 2587 1246 2588 1247 2588 1248 2589 1248 2589 1249 2590 1249 2590 1250 2591 1250 2591 1251 2592 1251 2593 1252 2593 1252 2594 1253 2594 1254 2595 1254 2595 1255 2596 1255 2596 1256 2597 1256 2598 1257 2598 1257 2599 1258 2599 1259 2600 1259 2600 1260 2601 1260 2601 1261 2602 1261 2602 1262 2603 1262 2604 1263 2604 1263 2605 1264 2605 1265 2606 1265 2606 1266 2607 1266 2607 1267 2608 1267 2608 1268 2609 1268 2609 1269 2610 1269 2610 1270 2611 1271 2612 1271 2612 1272 2613 1272 2613 1273 2614 1273 2614 1274 2615 1274 2615 1275 2616 1276 2616 1276 2617 1277 2617 1277 2618 1278 2618 1278 2619 1279 2619 1279 2620 1280 2621 1280 2621 1281 2622 1282 2622 1282 2623 1283 2623 1283 2624 1284 2624 1284 2625 1285 2625 1285 2626 1286 2626 1286 2627 1287 2627 1288 2628 1288 2628 1289 2629 1289 2629 1290 2630 1290 2630 1291 2631 1291 2631 1292 2632 1293 2632 1293 2633 1294 2633 1294 2634 1295 2634 1295 2635 1296 2635 1296 2636 1297 2636 1297 2637 1298 2637 1299 2638 1299 2638 1300 2639 1300 2639 1301 2640 1301 2640 1302 2641 1302 2641 1303 2642 1303 2642 1304 2643 1305 2643 1305 2644 1306 2644 1306 2645 1307 2645 1307 2646 1308 2646 1308 2647 1309 2647 1310 2648 1310 2648 1311 2649 1311 2649 1312 2650 1312 2650 1313 2651 1313 2651 1314 2652 1314 2652 1315 2653 1316 2653 1316 2654 1317 2654 1317 2655 1318 2655 1318 2656 1319 2656 1319 2657 1320 2657 1321 2658 1321 2658 1322 2659 1322 2659 1323 2660 1323 2660 1324 2661 1324 2661 1325 2661 1325 2662 1326 2662 1327 2663 1327 2663 1328 2664 1328 2664 1329 2665 1329 2665 1330 2666 1330 2666 1331 2667 1331 2667 1332 2668 1333 2668 1333 2669 1334 2669 1334 2670 1335 2670 1335 2670 1336 2671 1336 2671 1337 2672 1338 2672 1338 2673 1339 2673 1339 2674 1340 2674 1340 2675 1341 2675 1341 2676 1342 2676 1342 2676 1343 2677 1344 2677 1344 2678 1345 2678 1345 2679 1346 2679 1346 2680 1347 2680 1347 2681 1348 2681 1348 2682 1349 2682 1350 2682 1350 2683 1351 2683 1351 2684 1352 2684 1352 2685 1353 2685 1353 2686 1354 2686 1355 2686 1355 2687 1356 2687 1356 2688 1357 2688 1357 2689 1358 2689 1358 2690 1359 2690 1359 2691 1360 2691 1361 2691 1361 2692 1362 2692 1362 2693 1363 2693 1363 2694 1364 2694 1364 2694 1365 2695 1365 2695 1366 2696 1367 2696 1367 2697 1368 2697 1368 2698 1369 2698 1369 2698 1370 2699 1370 2699 1371 2700 1372 2700 1372 2701 1373 2701 1373 2701 1374 2702 1374 2702 1375 2703 1375 2703 1376 2704 1376 2704 1377 2704 1378 2705 1378 2705 1379 2706 1379 2706 1380 2707 1380 2707 1381 2707 1381 2708 1382 2708 1382 2709 1383 2709 1384 2710 1384 2710 1385 2710 1385 2711 1386 2711 1386 2712 1387 2712 1387 2713 1388 2713 1389 2713 1389 2714 1390 2714 1390 2715 1391 2715 1391 2715 1392 2716 1392 2716 1393 2717 1393 2717 1394 2718 1395 2718 1395 2718 1396 2719 1396 2719 1397 2720 1397 2720 1398 2720 1398 2721 1399 2721 1400 2722 1400 2722 1401 2723 1401 2723 1402 2723 1402 2724 1403 2724 1403 2725 1404 2725 1404 2725 1405 2726 1406 2726 1406 2727 1407 2727 1407 2727 1408 2728 1408 2728 1409 2729 1409 2729 1410 2729 1410 2730 1411 2730 1412 2731 1412 2731 1413 2731 1413 2732 1414 2732 1414 2733 1415 2733 1415 2733 1416 2734 1417 2734 1417 2735 1418 2735 1418 2735 1419 2736 1419 2736 1420 2737 1420 2737 1421 2737 1421 2738 1422 2738 1423 2739 1423 2739 1424 2739 1424 2740 1425 2740 1425 2740 1426 2741 1426 2741 1427 2742 1427 2742 1428 2742 1429 2743 1429 2743 1430 2744 1430 2744 1431 2744 1431 2745 1432 2745 1432 2746 1433 2746 1434 2746 1434 2747 1435 2747 1435 2747 1436 2748 1436 2748 1437 2749 1437 2749 1438 2749 1438 2750 1439 2750 1440 2750 1440 2751 1441 2751 1441 2752 1442 2752 1442 2752 1443 2753 1443 2753 1444 2753 1444 2754 1445 2754 1446 2755 1446 2755 1447 2755 1447 2756 1448 2756 1448 2756 1449 2757 1449 2757 1450 2758 1451 2758 1451 2758 1452 2759 1452 2759 1453 2759 1453 2760 1454 2760 1454 2761 1455 2761 1455 2761 1456 2762 1457 2762 1457 2762 1458 2763 1458 2763 1459 2763 1459 2764 1460 2764 1460 2765 1461 2765 1461 2765 1462 2766 1463 2766 1463 2766 1464 2767 1464 2767 1465 2767 1465 2768 1466 2768 1466 2768 1467 2769 1468 2769 1468 2770 1469 2770 1469 2770 1470 2771 1470 2771 1471 2771 1471 2772 1472 2772 1472 2772 1473 2773 1474 2773 1474 2773 1475 2774 1475 2774 1476 2775 1476 2775 1477 2775 1477 2776 1478 2776 1479 2776 1479 2777 1480 2777 1480 2777 1481 2778 1481 2778 1482 2778 1482 2779 1483 2779 1483 2779 1484 2780 1485 2780 1485 2780 1486 2781 1486 2781 1487 2781 1487 2782 1488 2782 1488 2783 1489 2783 1489 2783 1490 2784 1491 2784 1491 2784 1492 2785 1492 2785 1493 2785 1493 2786 1494 2786 1494 2786 1495 2787 1496 2787 1496 2787 1497 2788 1497 2788 1498 2788 1498 2789 1499 2789 1499 2789 1500 2790 1500 2790 1501 2790 1502 2791 1502 2791 1503 2791 1503 2792 1504 2792 1504 2792 1505 2793 1505 2793 1506 2793 1506 2794 1507 2794 1508 2794 1508 2795 1509 2795 1509 2795 1510 2796 1510 2796 1511 2796 1511 2797 1512 2797 1513 2797 1513 2798 1514 2798 1514 2798 1515 2799 1515 2799 1516 2799 1516 2799 1517 2800 1517 2800 1518 2800 1519 2801 1519 2801 1520 2801 1520 2802 1521 2802 1521 2802 1522 2803 1522 2803 1523 2803 1523 2804 1524 2804 1525 2804 1525 2805 1526 2805 1526 2805 1527 2806 1527 2806 1528 2806 1528 2807 1529 2807 1530 2807 1530 2807 1531 2808 1531 2808 1532 2808 1532 2809 1533 2809 1533 2809 1534 2810 1534 2810 1535 2810 1536 2811 1536 2811 1537 2811 1537 2812 1538 2812 1538 2812 1539 2812 1539 2813 1540 2813 1540 2813 1541 2814 1542 2814 1542 2814 1543 2815 1543 2815 1544 2815 1544 2816 1545 2816 1545 2816 1546 2816 1547 2817 1547 2817 1548 2817 1548 2818 1549 2818 1549 2818 1550 2819 1550 2819 1551 2819 1551 2819 1552 2820 1553 2820 1553 2820 1554 2821 1554 2821 1555 2821 1555 2822 1556 2822 1556 2822 1557 2822 1558 2823 1558 2823 1559 2823 1559 2824 1560 2824 1560 2824 1561 2825 1561 2825 1562 2825 1562 2825 1563 2826 1564 2826 1564 2826 1565 2827 1565 2827 1566 2827 1566 2828 1567 2828 1567 2828 1568 2828 1568 2829 1569 2829 1570 2829 1570 2830 1571 2830 1571 2830 1572 2830 1572 2831 1573 2831 1573 2831 1574 2832 1575 2832 1575 2832 1576 2832 1576 2833 1577 2833 1577 2833 1578 2834 1578 2834 1579 2834 1579 2834 1580 2835 1581 2835 1581 2835 1582 2836 1582 2836 1583 2836 1583 2836 1584 2837 1584 2837 1585 2837 1585 2838 1586 2838 1587 2838 1587 2838 1588 2839 1588 2839 1589 2839 1589 2840 1590 2840 1590 2840 1591 2840 1592 2841 1592 2841 1593 2841 1593 2841 1594 2842 1594 2842 1595 2842 1595 2843 1596 2843 1596 2843 1597 2843 1598 2844 1598 2844 1599 2844 1599 2844 1600 2845 1600 2845 1601 2845 1601 2846 1602 2846 1602 2846 1603 2846 1604 2847 1604 2847 1605 2847 1605 2847 1606 2848 1606 2848 1607 2848 1607 2849 1608 2849 1609 2849 1609 2849 1610 2850 1610 2850 1611 2850 1611 2850 1612 2851 1612 2851 1613 2851 1613 2852 1614 2852 1615 2852 1615 2852 1616 2853 1616 2853 1617 2853 1617 2853 1618 2854 1618 2854 1619 2854 1619 2854 1620 2855 1621 2855 1621 2855 1622 2855 1622 2856 1623 2856 1623 2856 1624 2857 1624 2857 1625 2857 1626 2857 1626 2858 1627 2858 1627 2858 1628 2858 1628 2859 1629 2859 1629 2859 1630 2859 1630 2860 1631 2860 1632 2860 1632 2860 1633 2861 1633 2861 1634 2861 1634 2861 1635 2862 1635 2862 1636 2862 1637 2862 1637 2863 1638 2863 1638 2863 1639 2863 1639 2864 1640 2864 1640 2864 1641 2864 1641 2865 1642 2865 1643 2865 1643 2865 1644 2866 1644 2866 1645 2866 1645 2866 1646 2867 1646 2867 1647 2867 1647 2867 1648 2868 1649 2868 1649 2868 1650 2868 1650 2869 1651 2869 1651 2869 1652 2869 1652 2870 1653 2870 1654 2870 1654 2870 1655 2871 1655 2871 1656 2871 1656 2871 1657 2872 1657 2872 1658 2872 1658 2872 1659 2873 1660 2873 1660 2873 1661 2873 1661 2874 1662 2874 1662 2874 1663 2874 1663 2875 1664 2875 1664 2875 1665 2875 1666 2875 1666 2876 1667 2876 1667 2876 1668 2876 1668 2877 1669 2877 1669 2877 1670 2877 1671 2878 1671 2878 1672 2878 1672 2878 1673 2879 1673 2879 1674 2879 1674 2879 1675 2880 1675 2880 1676 2880 1677 2880 1677 2880 1678 2881 1678 2881 1679 2881 1679 2881 1680 2882 1680 2882 1681 2882 1681 2882 1682 2883 1683 2883 1683 2883 1684 2883 1684 2883 1685 2884 1685 2884 1686 2884 1686 2884 1687 2885 1688 2885 1688 2885 1689 2885 1689 2886 1690 2886 1690 2886 1691 2886 1691 2886 1692 2887 1692 2887 1693 2887 1694 2887 1694 2888 1695 2888 1695 2888 1696 2888 1696 2888 1697 2889 1697 2889 1698 2889 1698 2889 1699 2890 1700 2890 1700 2890 1701 2890 1701 2890 1702 2891 1702 2891 1703 2891 1703 2891 1704 2892 1705 2892 1705 2892 1706 2892 1706 2892 1707 2893 1707 2893 1708 2893 1708 2893 1709 2894 1709 2894 1710 2894 1711 2894 1711 2894 1712 2895 1712 2895 1713 2895 1713 2895 1714 2896 1714 2896 1715 2896 1716 2896 1716 2896 1717 2897 1717 2897 1718 2897 1718 2897 1719 2897 1719 2898 1720 2898 1720 2898 1721 2898 1722 2899 1722 2899 1723 2899 1723 2899 1724 2899 1724 2900 1725 2900 1725 2900 1726 2900 1726 2900 1727 2901 1728 2901 1728 2901 1729 2901 1729 2902 1730 2902 1730 2902 1731 2902 1731 2902 1732 2903 1733 2903 1733 2903 1734 2903 1734 2903 1735 2904 1735 2904 1736 2904 1736 2904 1737 2904 1737 2905 1738 2905 1739 2905 1739 2905 1740 2905 1740 2906 1741 2906 1741 2906 1742 2906 1742 2907 1743 2907 1743 2907 1744 2907 1745 2907 1745 2908 1746 2908 1746 2908 1747 2908 1747 2908 1748 2909 1748 2909 1749 2909 1750 2909 1750 2909 1751 2910 1751 2910 1752 2910 1752 2910 1753 2910 1753 2911 1754 2911 1754 2911 1755 2911 1756 2911 1756 2912 1757 2912 1757 2912 1758 2912 1758 2912 1759 2913 1759 2913 1760 2913 1760 2913 1761 2913 1762 2914 1762 2914 1763 2914 1763 2914 1764 2914 1764 2915 1765 2915 1765 2915 1766 2915 1767 2915 1767 2916 1768 2916 1768 2916 1769 2916 1769 2916 1770 2916 1770 2917 1771 2917 1771 2917 1772 2917 1773 2917 1773 2918 1774 2918 1774 2918 1775 2918 1775 2918 1776 2919 1776 2919 1777 2919 1777 2919 1778 2919 1779 2920 1779 2920 1780 2920 1780 2920 1781 2920 1781 2921 1782 2921 1782 2921 1783 2921 1784 2921 1784 2921 1785 2922 1785 2922 1786 2922 1786 2922 1787 2922 1787 2923 1788 2923 1788 2923 1789 2923 1790 2923 1790 2924 1791 2924 1791 2924 1792 2924 1792 2924 1793 2924 1793 2925 1794 2925 1795 2925 1795 2925 1796 2925 1796 2926 1797 2926 1797 2926 1798 2926 1798 2926 1799 2926 1799 2927 1800 2927 1801 2927 1801 2927 1802 2927 1802 2928 1803 2928 1803 2928 1804 2928 1804 2928 1805 2928 1805 2929 1806 2929 1807 2929 1807 2929 1808 2929 1808 2930 1809 2930 1809 2930 1810 2930 1810 2930 1811 2930 1812 2931 1812 2931 1813 2931 1813 2931 1814 2931 1814 2931 1815 2932 1815 2932 1816 2932 1816 2932 1817 2932 1818 2933 1818 2933 1819 2933 1819 2933 1820 2933 1820 2933 1821 2934 1821 2934 1822 2934 1822 2934 1823 2934 1824 2934 1824 2935 1825 2935 1825 2935 1826 2935 1826 2935 1827 2936 1827 2936 1828 2936 1829 2936 1829 2936 1830 2936 1830 2937 1831 2937 1831 2937 1832 2937 1832 2937 1833 2937 1833 2938 1834 2938 1835 2938 1835 2938 1836 2938 1836 2938 1837 2939 1837 2939 1838 2939 1838 2939 1839 2939 1839 2939 1840 2940 1841 2940 1841 2940 1842 2940 1842 2940 1843 2940 1843 2941 1844 2941 1844 2941 1845 2941 1846 2941 1846 2941 1847 2942 1847 2942 1848 2942 1848 2942 1849 2942 1849 2942 1850 2943 1850 2943 1851 2943 1852 2943 1852 2943 1853 2943 1853 2944 1854 2944 1854 2944 1855 2944 1855 2944 1856 2944 1856 2945 1857 2945 1858 2945 1858 2945 1859 2945 1859 2945 1860 2946 1860 2946 1861 2946 1861 2946 1862 2946 1863 2946 1863 2947 1864 2947 1864 2947 1865 2947 1865 2947 1866 2947 1866 2947 1867 2948 1867 2948 1868 2948 1869 2948 1869 2948 1870 2948 1870 2949 1871 2949 1871 2949 1872 2949 1872 2949 1873 2949 1874 2950 1874 2950 1875 2950 1875 2950 1876 2950 1876 2950 1877 2950 1877 2951 1878 2951 1878 2951 1879 2951 1880 2951 1880 2951 1881 2952 1881 2952 1882 2952 1882 2952 1883 2952 1883 2952 1884 2952 1884 2953 1885 2953 1886 2953 1886 2953 1887 2953 1887 2953 1888 2954 1888 2954 1889 2954 1889 2954 1890 2954 1891 2954 1891 2954 1892 2955 1892 2955 1893 2955 1893 2955 1894 2955 1894 2955 1895 2956 1895 2956 1896 2956 1897 2956 1897 2956 1898 2956 1898 2956 1899 2957 1899 2957 1900 2957 1900 2957 1901 2957 1901 2957 1902 2957 1903 2958 1903 2958 1904 2958 1904 2958 1905 2958 1905 2958 1906 2958 1906 2959 1907 2959 1908 2959 1908 2959 1909 2959 1909 2959 1910 2960 1910 2960 1911 2960 1911 2960 1912 2960 1912 2960 1913 2960 1914 2961 1914 2961 1915 2961 1915 2961 1916 2961 1916 2961 1917 2961 1917 2962 1918 2962 1918 2962 1919 2962 1920 2962 1920 2962 1921 2962 1921 2963 1922 2963 1922 2963 1923 2963 1923 2963 1924 2963 1925 2963 1925 2964 1926 2964 1926 2964 1927 2964 1927 2964 1928 2964 1928 2964 1929 2965 1929 2965 1930 2965 1931 2965 1931 2965 1932 2965 1932 2965 1933 2966 1933 2966 1934 2966 1934 2966 1935 2966 1935 2966 1936 2966 1937 2966 1937 2967 1938 2967 1938 2967 1939 2967 1939 2967 1940 2967 1940 2967 1941 2968 1942 2968 1942 2968 1943 2968 1943 2968 1944 2968 1944 2968 1945 2969 1945 2969 1946 2969 1946 2969 1947 2969 1948 2969 1948 2969 1949 2969 1949 2970 1950 2970 1950 2970 1951 2970 1951 2970 1952 2970 1953 2970 1953 2971 1954 2971 1954 2971 1955 2971 1955 2971 1956 2971 1956 2971 1957 2971 1957 2972 1958 2972 1959 2972 1959 2972 1960 2972 1960 2972 1961 2972 1961 2973 1962 2973 1962 2973 1963 2973 1963 2973 1964 2973 1965 2973 1965 2973 1966 2974 1966 2974 1967 2974 1967 2974 1968 2974 1968 2974 1969 2974 1970 2975 1970 2975 1971 2975 1971 2975 1972 2975 1972 2975 1973 2975 1973 2975 1974 2976 1974 2976 1975 2976 1976 2976 1976 2976 1977 2976 1977 2976 1978 2976 1978 2977 1979 2977 1979 2977 1980 2977 1980 2977 1981 2977 1982 2977 1982 2977 1983 2978 1983 2978 1984 2978 1984 2978 1985 2978 1985 2978 1986 2978 1987 2978 1987 2979 1988 2979 1988 2979 1989 2979 1989 2979 1990 2979 1990 2979 1991 2979 1991 2980 1992 2980 1993 2980 1993 2980 1994 2980 1994 2980 1995 2980 1995 2980 1996 2981 1996 2981 1997 2981 1997 2981 1998 2981 1999 2981 1999 2981 2000 2981 2000 2982 2001 2982 2001 2982 2002 2982 2002 2982 2003 2982 2004 2982 2004 2982 2005 2983 2005 2983 2006 2983 2006 2983 2007 2983 2007 2983 2008 2983 2008 2983 2009 2983 2010 2984 2010 2984 2011 2984 2011 2984 2012 2984 2012 2984 2013 2984 2013 2984 2014 2985 2014 2985 2015 2985 2016 2985 2016 2985 2017 2985 2017 2985 2018 2985 2018 2985 2019 2986 2019 2986 2020 2986 2021 2986 2021 2986 2022 2986 2022 2986 2023 2986 2023 2987 2024 2987 2024 2987 2025 2987 2025 2987 2026 2987 2027 2987 2027 2987 2028 2987 2028 2988 2029 2988 2029 2988 2030 2988 2030 2988 2031 2988 2032 2988 2032 2988 2033 2988 2033 2989 2034 2989 2034 2989 2035 2989 2035 2989 2036 2989 2036 2989 2037 2989 2038 2989 2038 2990 2039 2990 2039 2990 2040 2990 2040 2990 2041 2990 2041 2990 2042 2990 2042 2991 2043 2991 2044 2991 2044 2991 2045 2991 2045 2991 2046 2991 2046 2991 2047 2991 2047 2992 2048 2992 2049 2992 2049 2992 2050 2992 2050 2992 2051 2992 2051 2992 2052 2992 2052 2992 2053 2993 2053 2993 2054 2993 2055 2993 2055 2993 2056 2993 2056 2993 2057 2993 2057 2993 2058 2994 2058 2994 2059 2994 2059 2994 2060 2994 2061 2994 2061 2994 2062 2994 2062 2994 2063 2995 2063 2995 2064 2995 2064 2995 2065 2995 2066 2995 2066 2995 2067 2995 2067 2995 2068 2996 2068 2996 2069 2996 2069 2996 2070 2996 2070 2996 2071 2996 2072 2996 2072 2996 2073 2996 2073 2997 2074 2997 2074 2997 2075 2997 2075 2997 2076 2997 2076 2997 2077 2997 2078 2997 2078 2998 2079 2998 2079 2998 2080 2998 2080 2998 2081 2998 2081 2998 2082 2998 2083 2998 2083 2998 2084 2999 2084 2999 2085 2999 2085 2999 2086 2999 2086 2999 2087 2999 2087 2999 2088 2999 2089 2999 2089 3000 2090 3000 2090 3000 2091 3000 2091 3000 2092 3000 2092 3000 2093 3000 2093 3000 2094 3000 2095 3001 2095 3001 2096 3001 2096 3001 2097 3001 2097 3001 2098 3001 2098 3001 2099 3001 2100 3001 2100 3002 2101 3002 2101 3002 2102 3002 2102 3002 2103 3002 2103 3002 2104 3002 2104 3002 2105 3002 2106 3003 2106 3003 2107 3003 2107 3003 2108 3003 2108 3003 2109 3003 2109 3003 2110 3003 2111 3003 2111 3004 2112 3004 2112 3004 2113 3004 2113 3004 2114 3004 2114 3004 2115 3004 2115 3004 2116 3004 2117 3004 2117 3005 2118 3005 2118 3005 2119 3005 2119 3005 2120 3005 2120 3005 2121 3005 2121 3005 2122 3005 2123 3006 2123 3006 2124 3006 2124 3006 2125 3006 2125 3006 2126 3006 2126 3006 2127 3006 2128 3006 2128 3006 2129 3007 2129 3007 2130 3007 2130 3007 2131 3007 2131 3007 2132 3007 2132 3007 2133 3007 2134 3007 2134 3008 2135 3008 2135 3008 2136 3008 2136 3008 2137 3008 2137 3008 2138 3008 2138 3008 2139 3008 2140 3008 2140 3009 2141 3009 2141 3009 2142 3009 2142 3009 2143 3009 2143 3009 2144 3009 2145 3009 2145 3009 2146 3009 2146 3010 2147 3010 2147 3010 2148 3010 2148 3010 2149 3010 2149 3010 2150 3010 2151 3010 2151 3010 2152 3010 2152 3011 2153 3011 2153 3011 2154 3011 2154 3011 2155 3011 2155 3011 2156 3011 2157 3011 2157 3011 2158 3011 2158 3011 2159 3012 2159 3012 2160 3012 2160 3012 2161 3012 2162 3012 2162 3012 2163 3012 2163 3012 2164 3012 2164 3012 2165 3013 2165 3013 2166 3013 2166 3013 2167 3013 2168 3013 2168 3013 2169 3013 2169 3013 2170 3013 2170 3013 2171 3014 2171 3014 2172 3014 2172 3014 2173 3014 2174 3014 2174 3014 2175 3014 2175 3014 2176 3014 2176 3014 2177 3014 2177 3015 2178 3015 2179 3015 2179 3015 2180 3015 2180 3015 2181 3015 2181 3015 2182 3015 2182 3015 2183 3015 2183 3015 2184 3016 2185 3016 2185 3016 2186 3016 2186 3016 2187 3016 2187 3016 2188 3016 2188 3016 2189 3016 2190 3016 2190 3016 2191 3017 2191 3017 2192 3017 2192 3017 2193 3017 2193 3017 2194 3017 2194 3017 2195 3017 2196 3017 2196 3017 2197 3017 2197 3018 2198 3018 2198 3018 2199 3018 2199 3018 2200 3018 2200 3018 2201 3018 2202 3018 2202 3018 2203 3018 2203 3018 2204 3018 2204 3019 2205 3019 2205 3019 2206 3019 2207 3019 2207 3019 2208 3019 2208 3019 2209 3019 2209 3019 2210 3019 2210 3019 2211 3020 2211 3020 2212 3020 2213 3020 2213 3020 2214 3020 2214 3020 2215 3020 2215 3020 2216 3020 2216 3020 2217 3020 2217 3020 2218 3021 2219 3021 2219 3021 2220 3021 2220 3021 2221 3021 2221 3021 2222 3021 2222 3021 2223 3021 2224 3021 2224 3021 2225 3021 2225 3022 2226 3022 2226 3022 2227 3022 2227 3022 2228 3022 2228 3022 2229 3022 2230 3022 2230 3022 2231 3022 2231 3022 2232 3022 2232 3023 2233 3023 2233 3023 2234 3023 2234 3023 2235 3023 2236 3023 2236 3023 2237 3023 2237 3023 2238 3023 2238 3023 2239 3023 2239 3024 2240 3024 2241 3024 2241 3024 2242 3024 2242 3024 2243 3024 2243 3024 2244 3024 2244 3024 2245 3024 2245 3024 2246 3024 2247 3025 2247 3025 2248 3025 2248 3025 2249 3025 2249 3025 2250 3025 2250 3025 2251 3025 2251 3025 2252 3025 2253 3025 2253 3025 2254 3025 2254 3026 2255 3026 2255 3026 2256 3026 2256 3026 2257 3026 2258 3026 2258 3026 2259 3026 2259 3026 2260 3026 2260 3026 2261 3026 2261 3026 2262 3027 2262 3027 2263 3027 2264 3027 2264 3027 2265 3027 2265 3027 2266 3027 2266 3027 2267 3027 2267 3027 2268 3027 2269 3027 2269 3027 2270 3028 2270 3028 2271 3028 2271 3028 2272 3028 2272 3028 2273 3028 2273 3028 2274 3028 2275 3028 2275 3028 2276 3028 2276 3028 2277 3028 2277 3029 2278 3029 2278 3029 2279 3029 2279 3029 2280 3029 2281 3029 2281 3029 2282 3029 2282 3029 2283 3029 2283 3029 2284 3029 2284 3029 2285 3029 2286 3030 2286 3030 2287 3030 2287 3030 2288 3030 2288 3030 2289 3030 2289 3030 2290 3030 2290 3030" transform="translate(0,110)" style="stroke:rgb(40,24,144);stroke-width:1;fill:none;" />
 </g>
 <line transform="translate(0,110)" style="stroke:rgb(0,0,0);stroke-width:17;fill:none;" y1="692" y2="912" x1="1639" x2="1639" />
 <text x="1673" y="835" transform="translate(0,110)" style="fill:rgb(0,0,0);stroke-width:0;font-size:50;font-style:normal;font-weight:400;font-family:Arial;" >0.01</text>
 <line transform="translate(0,110)" style="stroke:rgb(0,0,0);stroke-width:17;fill:none;" y1="912" y2="912" x1="1217" x2="1639" />
 <text x="1408" y="979" transform="translate(0,110)" style="fill:rgb(0,0,0);stroke-width:0;font-size:50;font-style:normal;font-weight:400;font-family:Arial;" >20</text>
</svg>
