<?xml version="1.0" standalone="no"?>
<!DOCTYPE svg PUBLIC "-//W3C//DTD SVG 20001102//EN" "http://www.w3.org/TR/2000/CR-SVG-20001102/DTD/svg-20001102.dtd">
<svg xmlns="http://www.w3.org/2000/svg" width="2231" x="64" y="30" height="3159" id="/Users/maartenkole/Desktop/exp2syn_trace Export" >
 <text x="1122" y="75" style="fill:rgb(0,0,0);stroke-width:0;font-size:50;font-style:normal;font-weight:400;font-family:Arial;" >label:Exp2Syn[0].i</text>
 <g style="stroke:rgb(0,0,0);stroke-width:0.9;fill:none;" >
  <line transform="translate(0,110)" style="stroke:rgb(0,0,0);stroke-width:2;fill:none;" y1="2958" y2="2958" x1="319" x2="2229" />
  <line transform="translate(0,110)" style="stroke:rgb(0,0,0);stroke-width:2;fill:none;" y1="2958" y2="2982" x1="319" x2="319" />
  <line transform="translate(0,110)" style="stroke:rgb(0,0,0);stroke-width:2;fill:none;" y1="2958" y2="2970" x1="701" x2="701" />
  <line transform="translate(0,110)" style="stroke:rgb(0,0,0);stroke-width:2;fill:none;" y1="2958" y2="2982" x1="1083" x2="1083" />
  <line transform="translate(0,110)" style="stroke:rgb(0,0,0);stroke-width:2;fill:none;" y1="2958" y2="2970" x1="1465" x2="1465" />
  <line transform="translate(0,110)" style="stroke:rgb(0,0,0);stroke-width:2;fill:none;" y1="2958" y2="2982" x1="1847" x2="1847" />
  <line transform="translate(0,110)" style="stroke:rgb(0,0,0);stroke-width:2;fill:none;" y1="2958" y2="2970" x1="2229" x2="2229" />
  <text x="305" y="3037" transform="translate(0,110)" style="fill:rgb(0,0,0);stroke-width:0;font-size:50;font-style:normal;font-weight:400;font-family:Arial;" >0</text>
  <text x="1055" y="3037" transform="translate(0,110)" style="fill:rgb(0,0,0);stroke-width:0;font-size:50;font-style:normal;font-weight:400;font-family:Arial;" >40</text>
  <text x="1819" y="3037" transform="translate(0,110)" style="fill:rgb(0,0,0);stroke-width:0;font-size:50;font-style:normal;font-weight:400;font-family:Arial;" >80</text>
 </g>
 <g style="stroke:rgb(0,0,0);stroke-width:0.9;fill:none;" >
  <text x="-1619" y="109" transform="matrix(6.12323e-17,-1,1,6.12323e-17,0,110)" style="fill:rgb(0,0,0);stroke-width:0;font-size:50;font-style:normal;font-weight:400;font-family:Arial;" >Column #2</text>
  <line transform="translate(0,110)" style="stroke:rgb(0,0,0);stroke-width:2;fill:none;" y1="38" y2="2958" x1="318" x2="318" />
  <line transform="translate(0,110)" style="stroke:rgb(0,0,0);stroke-width:2;fill:none;" y1="2692" y2="2692" x1="317" x2="285" />
  <line transform="translate(0,110)" style="stroke:rgb(0,0,0);stroke-width:2;fill:none;" y1="2029" y2="2029" x1="317" x2="301" />
  <line transform="translate(0,110)" style="stroke:rgb(0,0,0);stroke-width:2;fill:none;" y1="1365" y2="1365" x1="317" x2="285" />
  <line transform="translate(0,110)" style="stroke:rgb(0,0,0);stroke-width:2;fill:none;" y1="701" y2="701" x1="317" x2="301" />
  <line transform="translate(0,110)" style="stroke:rgb(0,0,0);stroke-width:2;fill:none;" y1="37" y2="37" x1="317" x2="285" />
  <text x="162" y="2716" transform="translate(0,110)" style="fill:rgb(0,0,0);stroke-width:0;font-size:50;font-style:normal;font-weight:400;font-family:Arial;" >-0.02</text>
  <text x="162" y="1389" transform="translate(0,110)" style="fill:rgb(0,0,0);stroke-width:0;font-size:50;font-style:normal;font-weight:400;font-family:Arial;" >-0.01</text>
  <text x="249" y="61" transform="translate(0,110)" style="fill:rgb(0,0,0);stroke-width:0;font-size:50;font-style:normal;font-weight:400;font-family:Arial;" >0</text>
 </g>
 <g style="stroke:rgb(0,0,0);stroke-width:0.9;fill:none;" >
  <polyline points="320 37 320 37 320 37 321 37 321 37 322 37 322 37 323 37 323 37 324 37 324 37 324 37 325 37 325 37 326 37 326 37 327 37 327 37 328 37 328 37 329 37 329 37 330 37 330 37 331 37 331 37 332 37 332 37 333 37 333 37 334 37 334 37 335 37 335 37 336 37 336 37 337 37 337 37 338 37 338 37 339 421 339 756 340 1049 340 1303 341 1524 341 1716 342 1882 342 2025 343 2149 343 2254 344 2345 344 2421 345 2486 345 2585 346 2622 346 2652 347 2675 347 2693 348 2706 348 2715 349 2720 349 2722 350 2721 350 2718 351 2712 351 2705 352 2695 352 2685 353 2673 353 2660 354 2646 354 2631 355 2616 355 2600 356 2583 356 2549 357 2532 357 2514 358 2496 358 2478 359 2460 359 2441 360 2423 360 2405 361 2386 361 2368 362 2349 362 2331 363 2313 363 2295 364 2277 364 2258 365 2241 365 2223 366 2205 366 2187 367 2170 367 2135 368 2118 368 2101 369 2084 369 2067 370 2050 370 2034 371 2017 371 2001 372 1985 372 1969 373 1953 373 1937 374 1921 374 1906 375 1890 375 1875 376 1860 376 1845 377 1830 377 1800 378 1786 378 1771 379 1757 379 1743 380 1729 380 1715 381 1701 381 1687 382 1673 382 1660 383 1646 383 1633 384 1620 384 1607 385 1594 385 1581 386 1568 386 1555 387 1543 387 1530 388 1518 388 1494 389 1482 389 1470 390 1458 390 1446 391 1434 391 1423 392 1411 392 1400 393 1389 393 1377 394 1366 394 1355 395 1344 395 1334 396 1323 396 1312 397 1302 397 1291 398 1281 398 1260 399 1250 399 1240 400 1230 400 1220 401 1211 401 1201 402 1191 402 1182 403 1172 403 1163 404 1153 404 1144 405 1135 405 1126 406 1117 406 1108 407 1099 407 1090 408 1082 408 1073 409 1064 409 1047 410 1039 410 1031 411 1023 411 1014 412 1006 412 998 413 990 413 982 414 975 414 967 415 959 415 951 416 944 416 936 417 929 417 922 418 914 418 907 419 900 419 893 420 886 420 872 421 865 421 858 422 851 422 844 423 838 423 831 424 824 424 818 425 811 425 805 426 799 426 792 427 786 427 780 428 774 428 768 429 761 429 755 430 750 430 738 431 732 431 726 432 721 432 715 433 709 433 704 434 698 434 693 435 687 435 682 436 676 436 671 437 666 437 661 438 656 438 650 439 645 439 640 440 635 440 630 441 625 441 616 442 611 442 606 443 601 443 597 444 592 444 588 445 583 445 578 446 574 446 570 447 565 447 561 448 556 448 552 449 548 449 544 450 539 450 535 451 531 451 523 452 519 452 515 453 511 453 507 454 503 454 499 455 495 455 492 456 488 456 484 457 480 457 477 458 473 458 470 459 466 459 462 460 459 460 455 461 452 461 448 462 445 462 438 463 435 463 432 464 428 464 425 465 422 465 419 466 416 466 412 467 409 467 406 468 403 468 400 469 397 469 394 470 391 470 388 471 385 471 382 472 380 472 374 473 371 473 368 474 366 474 363 475 360 475 358 476 355 476 352 477 350 477 347 478 344 478 342 479 339 479 337 480 334 480 332 481 329 481 327 482 325 482 322 483 320 483 315 484 313 484 311 485 308 485 306 486 304 486 302 487 299 487 297 488 295 488 293 489 291 489 289 490 287 490 285 491 283 491 281 492 279 492 277 493 275 493 273 494 271 494 267 495 265 495 263 496 261 496 259 497 257 497 256 498 254 498 252 499 250 499 248 500 247 500 245 501 243 501 241 502 240 502 238 503 236 503 235 504 233 504 230 505 228 505 227 506 225 506 224 507 222 507 220 508 219 508 217 509 216 509 214 510 213 510 212 511 210 511 209 512 207 512 206 513 204 513 203 514 202 514 200 515 199 515 196 516 195 516 194 517 192 517 191 518 190 518 189 519 187 519 186 520 185 520 184 521 182 521 181 522 180 522 179 523 178 523 176 524 175 524 174 525 173 525 171 526 170 526 169 527 167 527 166 528 165 528 164 529 163 529 162 530 161 530 160 531 159 531 158 532 157 532 156 533 155 533 154 534 153 534 152 535 151 535 150 536 149 536 147 537 147 537 146 538 145 538 144 539 143 539 142 540 141 540 140 541 139 541 139 542 138 542 137 543 136 543 135 544 134 544 134 545 133 545 132 546 131 546 130 547 130 547 128 548 127 548 127 549 126 549 125 550 124 550 124 551 123 551 122 552 122 552 121 553 120 553 119 554 119 554 118 555 117 555 117 556 116 556 115 557 115 557 114 558 113 558 112 559 112 559 111 560 110 560 110 561 109 561 109 562 108 562 107 563 107 563 106 564 106 564 105 565 105 565 104 566 103 566 103 567 102 567 102 568 101 568 100 569 100 569 99 570 99 570 98 571 98 571 97 572 97 572 96 573 96 573 95 574 95 574 94 575 94 575 93 576 93 576 92 577 92 577 91 578 91 578 90 579 90 579 89 580 89 580 88 581 88 581 87 582 87 582 87 583 86 583 86 584 85 584 85 585 85 585 84 586 84 586 83 587 83 587 83 588 82 588 82 589 82 589 81 590 80 590 80 591 80 591 79 592 79 592 79 593 78 593 78 594 78 594 77 595 77 595 77 596 76 596 76 597 76 597 75 598 75 598 75 599 74 599 74 600 73 600 73 601 73 601 73 602 72 602 72 603 72 603 71 604 71 604 71 605 71 605 70 606 70 606 70 607 69 607 69 608 69 608 69 609 68 609 68 610 68 610 67 611 67 611 67 612 67 612 66 613 66 613 66 614 66 614 65 615 65 615 65 616 65 616 64 617 64 617 64 618 64 618 64 619 63 619 63 620 63 620 63 621 62 621 62 622 62 622 62 623 61 623 61 624 61 624 61 625 61 625 60 626 60 626 60 627 60 627 60 628 59 628 59 629 59 629 59 630 59 630 59 631 58 631 58 632 58 632 58 633 58 633 57 634 57 634 57 635 57 635 57 636 57 636 56 637 56 637 56 638 56 638 56 639 56 639 55 640 55 640 55 641 55 641 55 642 55 642 54 643 54 643 54 644 54 644 54 645 54 645 54 646 53 646 53 647 53 647 53 648 53 648 53 649 53 649 52 650 52 650 52 651 52 651 52 652 52 652 52 653 51 653 51 654 51 654 51 655 51 655 51 656 51 656 51 657 51 657 50 658 50 658 50 659 50 659 50 660 50 660 50 661 50 661 50 662 49 662 49 663 49 663 49 664 49 664 49 665 49 665 49 666 49 666 48 667 48 667 48 668 48 668 48 669 48 669 48 670 48 670 48 671 48 671 48 672 47 672 47 673 47 673 47 674 47 674 47 675 47 675 47 676 47 676 47 677 47 677 46 678 46 678 46 679 46 679 46 680 46 680 46 681 46 681 46 682 46 682 46 683 46 683 46 684 45 684 45 685 45 685 45 686 45 686 45 687 45 687 45 688 45 688 45 689 45 689 45 690 45 690 45 691 44 691 44 692 44 692 44 693 44 693 44 694 44 694 44 695 44 695 44 696 44 696 44 697 44 697 44 698 44 698 44 699 44 699 43 700 43 700 43 701 43 701 43 702 43 702 43 703 43 703 43 704 43 704 43 705 43 705 43 706 43 706 43 707 43 707 43 708 43 708 43 709 42 709 42 710 42 710 42 711 42 711 42 712 42 712 42 713 42 713 42 714 42 714 42 715 42 715 42 716 42 716 42 717 42 717 42 718 42 718 42 719 42 719 42 720 42 720 41 721 41 721 41 722 41 722 41 723 41 723 41 724 41 724 41 725 41 725 41 726 41 726 41 727 41 727 41 728 41 728 41 729 41 729 41 730 41 730 41 731 41 731 41 732 41 732 41 733 41 733 41 734 41 734 41 735 40 735 40 736 40 736 40 737 40 737 40 738 40 738 40 739 40 739 40 740 40 740 40 741 40 741 40 742 40 742 40 743 40 743 40 744 40 744 40 745 40 745 40 746 40 746 40 747 40 747 40 748 40 748 40 749 40 749 40 750 40 750 40 751 40 751 40 752 40 752 40 753 40 753 40 754 39 754 39 755 39 755 39 756 39 756 39 757 39 757 39 758 39 758 39 759 39 759 39 760 39 760 39 761 39 761 39 762 39 762 39 763 39 763 39 764 39 764 39 765 39 765 39 766 39 766 39 767 39 767 39 768 39 768 39 769 39 769 39 770 39 770 39 771 39 771 39 772 39 772 39 773 39 773 39 774 39 774 39 775 39 775 39 776 39 776 39 777 39 777 39 778 39 778 39 779 39 779 39 780 39 780 39 781 39 781 39 782 39 782 39 783 39 783 38 784 38 784 38 785 38 785 38 786 38 786 38 787 38 787 38 788 38 788 38 789 38 789 38 790 38 790 38 791 38 791 38 792 38 792 38 793 38 793 38 794 38 794 38 795 38 795 38 796 38 796 38 797 38 797 38 798 38 798 38 799 38 799 38 800 38 800 38 801 38 801 38 802 38 802 38 803 38 803 38 804 38 804 38 805 38 805 38 806 38 806 38 807 38 807 38 808 38 808 38 809 38 809 38 810 38 810 38 811 38 811 38 812 38 812 38 813 38 813 38 814 38 814 38 815 38 815 38 816 38 816 38 817 38 817 38 818 38 818 38 819 38 819 38 820 38 820 38 821 38 821 38 822 38 822 38 823 38 823 38 824 38 824 38 825 38 825 38 826 38 826 38 827 38 827 38 828 38 828 38 829 38 829 38 830 38 830 38 831 38 831 38 832 38 832 38 833 38 833 38 834 38 834 38 835 38 835 38 836 38 836 38 837 38 837 38 838 38 838 38 839 38 839 38 840 38 840 38 841 38 841 38 842 38 842 38 843 38 843 38 844 38 844 38 845 38 845 38 846 37 846 37 847 37 847 37 848 37 848 37 849 37 849 37 850 37 850 37 851 37 851 37 852 37 852 37 853 37 853 37 854 37 854 37 855 37 855 37 856 37 856 37 857 37 857 37 858 37 858 37 859 37 859 37 860 37 860 37 861 37 861 37 862 37 862 37 863 37 863 37 864 37 864 37 865 37 865 37 866 37 866 37 867 37 867 37 868 37 868 37 869 37 869 37 870 37 870 37 871 37 871 37 872 37 872 37 873 37 873 37 874 37 874 37 875 37 875 37 876 37 876 37 877 37 877 37 878 37 878 37 879 37 879 37 880 37 880 37 881 37 881 37 882 37 882 37 883 37 883 37 884 37 884 37 885 37 885 37 886 37 886 37 887 37 887 37 888 37 888 37 889 37 889 37 890 37 890 37 891 37 891 37 892 37 892 37 893 37 893 37 894 37 894 37 895 37 895 37 896 37 896 37 897 37 897 37 898 37 898 37 899 37 899 37 900 37 900 37 901 37 901 37 902 37 902 37 903 37 903 37 904 37 904 37 905 37 905 37 906 37 906 37 907 37 907 37 908 37 908 37 909 37 909 37 910 37 910 37 911 37 911 37 912 37 912 37 913 37 913 37 914 37 914 37 915 37 915 37 916 37 916 37 917 37 917 37 918 37 918 37 919 37 919 37 920 37 920 37 921 37 921 37 922 37 922 37 923 37 923 37 924 37 924 37 925 37 925 37 926 37 926 37 927 37 927 37 928 37 928 37 929 37 929 37 930 37 930 37 931 37 931 37 932 37 932 37 933 37 933 37 934 37 934 37 935 37 935 37 936 37 936 37 937 37 937 37 938 37 938 37 939 37 939 37 940 37 940 37 941 37 941 37 942 37 942 37 943 37 943 37 944 37 944 37 945 37 945 37 946 37 946 37 947 37 947 37 948 37 948 37 949 37 949 37 950 37 950 37 951 37 951 37 952 37 952 37 953 37 953 37 954 37 954 37 955 37 955 37 956 37 956 37 957 37 957 37 958 37 958 37 959 37 959 37 960 37 960 37 961 37 961 37 962 37 962 37 963 37 963 37 964 37 964 37 965 37 965 37 966 37 966 37 967 37 967 37 968 37 968 37 969 37 969 37 970 37 970 37 971 37 971 37 972 37 972 37 973 37 973 37 974 37 974 37 975 37 975 37 976 37 976 37 977 37 977 37 978 37 978 37 979 37 979 37 980 37 980 37 981 37 981 37 982 37 982 37 983 37 983 37 984 37 984 37 985 37 985 37 986 37 986 37 987 37 987 37 988 37 988 37 989 37 989 37 990 37 990 37 991 37 991 37 992 37 992 37 993 37 993 37 994 37 994 37 995 37 995 37 996 37 996 37 997 37 997 37 998 37 998 37 999 37 999 37 1000 37 1000 37 1001 37 1001 37 1002 37 1002 37 1003 37 1003 37 1004 37 1004 37 1005 37 1005 37 1006 37 1006 37 1007 37 1007 37 1008 37 1008 37 1009 37 1009 37 1010 37 1010 37 1011 37 1011 37 1012 37 1012 37 1013 37 1013 37 1014 37 1014 37 1015 37 1015 37 1016 37 1016 37 1017 37 1017 37 1018 37 1018 37 1019 37 1019 37 1020 37 1020 37 1021 37 1021 37 1022 37 1022 37 1023 37 1023 37 1024 37 1024 37 1025 37 1025 37 1026 37 1026 37 1027 37 1027 37 1028 37 1028 37 1029 37 1029 37 1030 37 1030 37 1031 37 1031 37 1032 37 1032 37 1033 37 1033 37 1034 37 1034 37 1035 37 1035 37 1036 37 1036 37 1037 37 1037 37 1038 37 1038 37 1039 37 1039 37 1040 37 1040 37 1041 37 1041 37 1042 37 1042 37 1043 37 1043 37 1044 37 1044 37 1045 37 1045 37 1046 37 1046 37 1047 37 1047 37 1048 37 1048 37 1049 37 1049 37 1050 37 1050 37 1051 37 1051 37 1052 37 1052 37 1053 37 1053 37 1054 37 1054 37 1055 37 1055 37 1056 37 1056 37 1057 37 1057 37 1058 37 1058 37 1059 37 1059 37 1060 37 1060 37 1061 37 1061 37 1062 37 1062 37 1063 37 1063 37 1064 37 1064 37 1065 37 1065 37 1066 37 1066 37 1067 37 1067 37 1068 37 1068 37 1069 37 1069 37 1070 37 1070 37 1071 37 1071 37 1072 37 1072 37 1073 37 1073 37 1074 37 1074 37 1075 37 1075 37 1076 37 1076 37 1077 37 1077 37 1078 37 1078 37 1079 37 1079 37 1080 37 1080 37 1081 37 1081 37 1082 37 1082 37 1083 37 1083 37 1084 37 1084 37 1085 37 1085 37 1086 37 1086 37 1087 37 1087 37 1088 37 1088 37 1089 37 1089 37 1090 37 1090 37 1091 37 1091 37 1092 37 1092 37 1093 37 1093 37 1094 37 1094 37 1095 37 1095 37 1096 37 1096 37 1097 37 1097 37 1098 37 1098 37 1099 37 1099 37 1100 37 1100 37 1101 37 1101 37 1102 37 1102 37 1103 37 1103 37 1104 37 1104 37 1105 37 1105 37 1106 37 1106 37 1107 37 1107 37 1108 37 1108 37 1109 37 1109 37 1110 37 1110 37 1111 37 1111 37 1112 37 1112 37 1113 37 1113 37 1114 37 1114 37 1115 37 1115 37 1116 37 1116 37 1117 37 1117 37 1118 37 1118 37 1119 37 1119 37 1120 37 1120 37 1121 37 1121 37 1122 37 1122 37 1123 37 1123 37 1124 37 1124 37 1125 37 1125 37 1126 37 1126 37 1127 37 1127 37 1128 37 1128 37 1129 37 1129 37 1130 37 1130 37 1131 37 1131 37 1132 37 1132 37 1133 37 1133 37 1134 37 1134 37 1135 37 1135 37 1136 37 1136 37 1137 37 1137 37 1138 37 1138 37 1139 37 1139 37 1140 37 1140 37 1141 37 1141 37 1142 37 1142 37 1143 37 1143 37 1144 37 1144 37 1145 37 1145 37 1146 37 1146 37 1147 37 1147 37 1148 37 1148 37 1149 37 1149 37 1150 37 1150 37 1151 37 1151 37 1152 37 1152 37 1153 37 1153 37 1154 37 1154 37 1155 37 1155 37 1156 37 1156 37 1157 37 1157 37 1158 37 1158 37 1159 37 1159 37 1160 37 1160 37 1161 37 1161 37 1162 37 1162 37 1163 37 1163 37 1164 37 1164 37 1165 37 1165 37 1166 37 1166 37 1167 37 1167 37 1168 37 1168 37 1169 37 1169 37 1170 37 1170 37 1171 37 1171 37 1172 37 1172 37 1173 37 1173 37 1174 37 1174 37 1175 37 1175 37 1176 37 1176 37 1177 37 1177 37 1178 37 1178 37 1179 37 1179 37 1180 37 1180 37 1181 37 1181 37 1182 37 1182 37 1183 37 1183 37 1184 37 1184 37 1185 37 1185 37 1186 37 1186 37 1187 37 1187 37 1188 37 1188 37 1189 37 1189 37 1190 37 1190 37 1191 37 1191 37 1192 37 1192 37 1193 37 1193 37 1194 37 1194 37 1195 37 1195 37 1196 37 1196 37 1197 37 1197 37 1198 37 1198 37 1199 37 1199 37 1200 37 1200 37 1201 37 1201 37 1202 37 1202 37 1203 37 1203 37 1204 37 1204 37 1205 37 1205 37 1206 37 1206 37 1207 37 1207 37 1208 37 1208 37 1209 37 1209 37 1210 37 1210 37 1211 37 1211 37 1212 37 1212 37 1213 37 1213 37 1214 37 1214 37 1215 37 1215 37 1216 37 1216 37 1217 37 1217 37 1218 37 1218 37 1219 37 1219 37 1220 37 1220 37 1221 37 1221 37 1222 37 1222 37 1223 37 1223 37 1224 37 1224 37 1225 37 1225 37 1226 37 1226 37 1227 37 1227 37 1228 37 1228 37 1229 37 1229 37 1230 37 1230 37 1231 37 1231 37 1232 37 1232 37 1233 37 1233 37 1234 37 1234 37 1235 37 1235 37 1236 37 1236 37 1237 37 1237 37 1238 37 1238 37 1239 37 1239 37 1240 37 1240 37 1241 37 1241 37 1242 37 1242 37 1243 37 1243 37 1244 37 1244 37 1245 37 1245 37 1246 37 1246 37 1247 37 1247 37 1248 37 1248 37 1249 37 1249 37 1250 37 1250 37 1251 37 1251 37 1252 37 1252 37 1253 37 1253 37 1254 37 1254 37 1255 37 1255 37 1256 37 1256 37 1257 37 1257 37 1258 37 1258 37 1259 37 1259 37 1260 37 1260 37 1261 37 1261 37 1262 37 1262 37 1263 37 1263 37 1264 37 1264 37 1265 37 1265 37 1266 37 1266 37 1267 37 1267 37 1268 37 1268 37 1269 37 1269 37 1270 37 1270 37 1271 37 1271 37 1272 37 1272 37 1273 37 1273 37 1274 37 1274 37 1275 37 1275 37 1276 37 1276 37 1277 37 1277 37 1278 37 1278 37 1279 37 1279 37 1280 37 1280 37 1281 37 1281 37 1282 37 1282 37 1283 37 1283 37 1284 37 1284 37 1285 37 1285 37 1286 37 1286 37 1287 37 1287 37 1288 37 1288 37 1289 37 1289 37 1290 37 1290 37 1291 37 1291 37 1292 37 1292 37 1293 37 1293 37 1294 37 1294 37 1295 37 1295 37 1296 37 1296 37 1297 37 1297 37 1298 37 1298 37 1299 37 1299 37 1300 37 1300 37 1301 37 1301 37 1302 37 1302 37 1303 37 1303 37 1304 37 1304 37 1305 37 1305 37 1306 37 1306 37 1307 37 1307 37 1308 37 1308 37 1309 37 1309 37 1310 37 1310 37 1311 37 1311 37 1312 37 1312 37 1313 37 1313 37 1314 37 1314 37 1315 37 1315 37 1316 37 1316 37 1317 37 1317 37 1318 37 1318 37 1319 37 1319 37 1320 37 1320 37 1321 37 1321 37 1322 37 1322 37 1323 37 1323 37 1324 37 1324 37 1325 37 1325 37 1326 37 1326 37 1327 37 1327 37 1328 37 1328 37 1329 37 1329 37 1330 37 1330 37 1331 37 1331 37 1332 37 1332 37 1333 37 1333 37 1334 37 1334 37 1335 37 1335 37 1336 37 1336 37 1337 37 1337 37 1338 37 1338 37 1339 37 1339 37 1340 37 1340 37 1341 37 1341 37 1342 37 1342 37 1343 37 1343 37 1344 37 1344 37 1345 37 1345 37 1346 37 1346 37 1347 37 1347 37 1348 37 1348 37 1349 37 1349 37 1350 37 1350 37 1351 37 1351 37 1352 37 1352 37 1353 37 1353 37 1354 37 1354 37 1355 37 1355 37 1356 37 1356 37 1357 37 1357 37 1358 37 1358 37 1359 37 1359 37 1360 37 1360 37 1361 37 1361 37 1362 37 1362 37 1363 37 1363 37 1364 37 1364 37 1365 37 1365 37 1366 37 1366 37 1367 37 1367 37 1368 37 1368 37 1369 37 1369 37 1370 37 1370 37 1371 37 1371 37 1372 37 1372 37 1373 37 1373 37 1374 37 1374 37 1375 37 1375 37 1376 37 1376 37 1377 37 1377 37 1378 37 1378 37 1379 37 1379 37 1380 37 1380 37 1381 37 1381 37 1382 37 1382 37 1383 37 1383 37 1384 37 1384 37 1385 37 1385 37 1386 37 1386 37 1387 37 1387 37 1388 37 1388 37 1389 37 1389 37 1390 37 1390 37 1391 37 1391 37 1392 37 1392 37 1393 37 1393 37 1394 37 1394 37 1395 37 1395 37 1396 37 1396 37 1397 37 1397 37 1398 37 1398 37 1399 37 1399 37 1400 37 1400 37 1401 37 1401 37 1402 37 1402 37 1403 37 1403 37 1404 37 1404 37 1405 37 1405 37 1406 37 1406 37 1407 37 1407 37 1408 37 1408 37 1409 37 1409 37 1410 37 1410 37 1411 37 1411 37 1412 37 1412 37 1413 37 1413 37 1414 37 1414 37 1415 37 1415 37 1416 37 1416 37 1417 37 1417 37 1418 37 1418 37 1419 37 1419 37 1420 37 1420 37 1421 37 1421 37 1422 37 1422 37 1423 37 1423 37 1424 37 1424 37 1425 37 1425 37 1426 37 1426 37 1427 37 1427 37 1428 37 1428 37 1429 37 1429 37 1430 37 1430 37 1431 37 1431 37 1432 37 1432 37 1433 37 1433 37 1434 37 1434 37 1435 37 1435 37 1436 37 1436 37 1437 37 1437 37 1438 37 1438 37 1439 37 1439 37 1440 37 1440 37 1441 37 1441 37 1442 37 1442 37 1443 37 1443 37 1444 37 1444 37 1445 37 1445 37 1446 37 1446 37 1447 37 1447 37 1448 37 1448 37 1449 37 1449 37 1450 37 1450 37 1451 37 1451 37 1452 37 1452 37 1453 37 1453 37 1454 37 1454 37 1455 37 1455 37 1456 37 1456 37 1457 37 1457 37 1458 37 1458 37 1459 37 1459 37 1460 37 1460 37 1461 37 1461 37 1462 37 1462 37 1463 37 1463 37 1464 37 1464 37 1465 37 1465 37 1466 37 1466 37 1467 37 1467 37 1468 37 1468 37 1469 37 1469 37 1470 37 1470 37 1471 37 1471 37 1472 37 1472 37 1473 37 1473 37 1474 37 1474 37 1475 37 1475 37 1476 37 1476 37 1477 37 1477 37 1478 37 1478 37 1479 37 1479 37 1480 37 1480 37 1481 37 1481 37 1482 37 1482 37 1483 37 1483 37 1484 37 1484 37 1485 37 1485 37 1486 37 1486 37 1487 37 1487 37 1488 37 1488 37 1489 37 1489 37 1490 37 1490 37 1491 37 1491 37 1492 37 1492 37 1493 37 1493 37 1494 37 1494 37 1495 37 1495 37 1496 37 1496 37 1497 37 1497 37 1498 37 1498 37 1499 37 1499 37 1500 37 1500 37 1501 37 1501 37 1502 37 1502 37 1503 37 1503 37 1504 37 1504 37 1505 37 1505 37 1506 37 1506 37 1507 37 1507 37 1508 37 1508 37 1509 37 1509 37 1510 37 1510 37 1511 37 1511 37 1512 37 1512 37 1513 37 1513 37 1514 37 1514 37 1515 37 1515 37 1516 37 1516 37 1517 37 1517 37 1518 37 1518 37 1519 37 1519 37 1520 37 1520 37 1521 37 1521 37 1522 37 1522 37 1523 37 1523 37 1524 37 1524 37 1525 37 1525 37 1526 37 1526 37 1527 37 1527 37 1528 37 1528 37 1529 37 1529 37 1530 37 1530 37 1531 37 1531 37 1532 37 1532 37 1533 37 1533 37 1534 37 1534 37 1535 37 1535 37 1536 37 1536 37 1537 37 1537 37 1538 37 1538 37 1539 37 1539 37 1540 37 1540 37 1541 37 1541 37 1542 37 1542 37 1543 37 1543 37 1544 37 1544 37 1545 37 1545 37 1546 37 1546 37 1547 37 1547 37 1548 37 1548 37 1549 37 1549 37 1550 37 1550 37 1551 37 1551 37 1552 37 1552 37 1553 37 1553 37 1554 37 1554 37 1555 37 1555 37 1556 37 1556 37 1557 37 1557 37 1558 37 1558 37 1559 37 1559 37 1560 37 1560 37 1561 37 1561 37 1562 37 1562 37 1563 37 1563 37 1564 37 1564 37 1565 37 1565 37 1566 37 1566 37 1567 37 1567 37 1568 37 1568 37 1569 37 1569 37 1570 37 1570 37 1571 37 1571 37 1572 37 1572 37 1573 37 1573 37 1574 37 1574 37 1575 37 1575 37 1576 37 1576 37 1577 37 1577 37 1578 37 1578 37 1579 37 1579 37 1580 37 1580 37 1581 37 1581 37 1582 37 1582 37 1583 37 1583 37 1584 37 1584 37 1585 37 1585 37 1586 37 1586 37 1587 37 1587 37 1588 37 1588 37 1589 37 1589 37 1590 37 1590 37 1591 37 1591 37 1592 37 1592 37 1593 37 1593 37 1594 37 1594 37 1595 37 1595 37 1596 37 1596 37 1597 37 1597 37 1598 37 1598 37 1599 37 1599 37 1600 37 1600 37 1601 37 1601 37 1602 37 1602 37 1603 37 1603 37 1604 37 1604 37 1605 37 1605 37 1606 37 1606 37 1607 37 1607 37 1608 37 1608 37 1609 37 1609 37 1610 37 1610 37 1611 37 1611 37 1612 37 1612 37 1613 37 1613 37 1614 37 1614 37 1615 37 1615 37 1616 37 1616 37 1617 37 1617 37 1618 37 1618 37 1619 37 1619 37 1620 37 1620 37 1621 37 1621 37 1622 37 1622 37 1623 37 1623 37 1624 37 1624 37 1625 37 1625 37 1626 37 1626 37 1627 37 1627 37 1628 37 1628 37 1629 37 1629 37 1630 37 1630 37 1631 37 1631 37 1632 37 1632 37 1633 37 1633 37 1634 37 1634 37 1635 37 1635 37 1636 37 1636 37 1637 37 1637 37 1638 37 1638 37 1639 37 1639 37 1640 37 1640 37 1641 37 1641 37 1642 37 1642 37 1643 37 1643 37 1644 37 1644 37 1645 37 1645 37 1646 37 1646 37 1647 37 1647 37 1648 37 1648 37 1649 37 1649 37 1650 37 1650 37 1651 37 1651 37 1652 37 1652 37 1653 37 1653 37 1654 37 1654 37 1655 37 1655 37 1656 37 1656 37 1657 37 1657 37 1658 37 1658 37 1659 37 1659 37 1660 37 1660 37 1661 37 1661 37 1662 37 1662 37 1663 37 1663 37 1664 37 1664 37 1665 37 1665 37 1666 37 1666 37 1667 37 1667 37 1668 37 1668 37 1669 37 1669 37 1670 37 1670 37 1671 37 1671 37 1672 37 1672 37 1673 37 1673 37 1674 37 1674 37 1675 37 1675 37 1676 37 1676 37 1677 37 1677 37 1678 37 1678 37 1679 37 1679 37 1680 37 1680 37 1681 37 1681 37 1682 37 1682 37 1683 37 1683 37 1684 37 1684 37 1685 37 1685 37 1686 37 1686 37 1687 37 1687 37 1688 37 1688 37 1689 37 1689 37 1690 37 1690 37 1691 37 1691 37 1692 37 1692 37 1693 37 1693 37 1694 37 1694 37 1695 37 1695 37 1696 37 1696 37 1697 37 1697 37 1698 37 1698 37 1699 37 1699 37 1700 37 1700 37 1701 37 1701 37 1702 37 1702 37 1703 37 1703 37 1704 37 1704 37 1705 37 1705 37 1706 37 1706 37 1707 37 1707 37 1708 37 1708 37 1709 37 1709 37 1710 37 1710 37 1711 37 1711 37 1712 37 1712 37 1713 37 1713 37 1714 37 1714 37 1715 37 1715 37 1716 37 1716 37 1717 37 1717 37 1718 37 1718 37 1719 37 1719 37 1720 37 1720 37 1721 37 1721 37 1722 37 1722 37 1723 37 1723 37 1724 37 1724 37 1725 37 1725 37 1726 37 1726 37 1727 37 1727 37 1728 37 1728 37 1729 37 1729 37 1730 37 1730 37 1731 37 1731 37 1732 37 1732 37 1733 37 1733 37 1734 37 1734 37 1735 37 1735 37 1736 37 1736 37 1737 37 1737 37 1738 37 1738 37 1739 37 1739 37 1740 37 1740 37 1741 37 1741 37 1742 37 1742 37 1743 37 1743 37 1744 37 1744 37 1745 37 1745 37 1746 37 1746 37 1747 37 1747 37 1748 37 1748 37 1749 37 1749 37 1750 37 1750 37 1751 37 1751 37 1752 37 1752 37 1753 37 1753 37 1754 37 1754 37 1755 37 1755 37 1756 37 1756 37 1757 37 1757 37 1758 37 1758 37 1759 37 1759 37 1760 37 1760 37 1761 37 1761 37 1762 37 1762 37 1763 37 1763 37 1764 37 1764 37 1765 37 1765 37 1766 37 1766 37 1767 37 1767 37 1768 37 1768 37 1769 37 1769 37 1770 37 1770 37 1771 37 1771 37 1772 37 1772 37 1773 37 1773 37 1774 37 1774 37 1775 37 1775 37 1776 37 1776 37 1777 37 1777 37 1778 37 1778 37 1779 37 1779 37 1780 37 1780 37 1781 37 1781 37 1782 37 1782 37 1783 37 1783 37 1784 37 1784 37 1785 37 1785 37 1786 37 1786 37 1787 37 1787 37 1788 37 1788 37 1789 37 1789 37 1790 37 1790 37 1791 37 1791 37 1792 37 1792 37 1793 37 1793 37 1794 37 1794 37 1795 37 1795 37 1796 37 1796 37 1797 37 1797 37 1798 37 1798 37 1799 37 1799 37 1800 37 1800 37 1801 37 1801 37 1802 37 1802 37 1803 37 1803 37 1804 37 1804 37 1805 37 1805 37 1806 37 1806 37 1807 37 1807 37 1808 37 1808 37 1809 37 1809 37 1810 37 1810 37 1811 37 1811 37 1812 37 1812 37 1813 37 1813 37 1814 37 1814 37 1815 37 1815 37 1816 37 1816 37 1817 37 1817 37 1818 37 1818 37 1819 37 1819 37 1820 37 1820 37 1821 37 1821 37 1822 37 1822 37 1823 37 1823 37 1824 37 1824 37 1825 37 1825 37 1826 37 1826 37 1827 37 1827 37 1828 37 1828 37 1829 37 1829 37 1830 37 1830 37 1831 37 1831 37 1832 37 1832 37 1833 37 1833 37 1834 37 1834 37 1835 37 1835 37 1836 37 1836 37 1837 37 1837 37 1838 37 1838 37 1839 37 1839 37 1840 37 1840 37 1841 37 1841 37 1842 37 1842 37 1843 37 1843 37 1844 37 1844 37 1845 37 1845 37 1846 37 1846 37 1847 37 1847 37 1848 37 1848 37 1849 37 1849 37 1850 37 1850 37 1851 37 1851 37 1852 37 1852 37 1853 37 1853 37 1854 37 1854 37 1855 37 1855 37 1856 37 1856 37 1857 37 1857 37 1858 37 1858 37 1859 37 1859 37 1860 37 1860 37 1861 37 1861 37 1862 37 1862 37 1863 37 1863 37 1864 37 1864 37 1865 37 1865 37 1866 37 1866 37 1867 37 1867 37 1868 37 1868 37 1869 37 1869 37 1870 37 1870 37 1871 37 1871 37 1872 37 1872 37 1873 37 1873 37 1874 37 1874 37 1875 37 1875 37 1876 37 1876 37 1877 37 1877 37 1878 37 1878 37 1879 37 1879 37 1880 37 1880 37 1881 37 1881 37 1882 37 1882 37 1883 37 1883 37 1884 37 1884 37 1885 37 1885 37 1886 37 1886 37 1887 37 1887 37 1888 37 1888 37 1889 37 1889 37 1890 37 1890 37 1891 37 1891 37 1892 37 1892 37 1893 37 1893 37 1894 37 1894 37 1895 37 1895 37 1896 37 1896 37 1897 37 1897 37 1898 37 1898 37 1899 37 1899 37 1900 37 1900 37 1901 37 1901 37 1902 37 1902 37 1903 37 1903 37 1904 37 1904 37 1905 37 1905 37 1906 37 1906 37 1907 37 1907 37 1908 37 1908 37 1909 37 1909 37 1910 37 1910 37 1911 37 1911 37 1912 37 1912 37 1913 37 1913 37 1914 37 1914 37 1915 37 1915 37 1916 37 1916 37 1917 37 1917 37 1918 37 1918 37 1919 37 1919 37 1920 37 1920 37 1921 37 1921 37 1922 37 1922 37 1923 37 1923 37 1924 37 1924 37 1925 37 1925 37 1926 37 1926 37 1927 37 1927 37 1928 37 1928 37 1929 37 1929 37 1930 37 1930 37 1931 37 1931 37 1932 37 1932 37 1933 37 1933 37 1934 37 1934 37 1935 37 1935 37 1936 37 1936 37 1937 37 1937 37 1938 37 1938 37 1939 37 1939 37 1940 37 1940 37 1941 37 1941 37 1942 37 1942 37 1943 37 1943 37 1944 37 1944 37 1945 37 1945 37 1946 37 1946 37 1947 37 1947 37 1948 37 1948 37 1949 37 1949 37 1950 37 1950 37 1951 37 1951 37 1952 37 1952 37 1953 37 1953 37 1954 37 1954 37 1955 37 1955 37 1956 37 1956 37 1957 37 1957 37 1958 37 1958 37 1959 37 1959 37 1960 37 1960 37 1961 37 1961 37 1962 37 1962 37 1963 37 1963 37 1964 37 1964 37 1965 37 1965 37 1966 37 1966 37 1967 37 1967 37 1968 37 1968 37 1969 37 1969 37 1970 37 1970 37 1971 37 1971 37 1972 37 1972 37 1973 37 1973 37 1974 37 1974 37 1975 37 1975 37 1976 37 1976 37 1977 37 1977 37 1978 37 1978 37 1979 37 1979 37 1980 37 1980 37 1981 37 1981 37 1982 37 1982 37 1983 37 1983 37 1984 37 1984 37 1985 37 1985 37 1986 37 1986 37 1987 37 1987 37 1988 37 1988 37 1989 37 1989 37 1990 37 1990 37 1991 37 1991 37 1992 37 1992 37 1993 37 1993 37 1994 37 1994 37 1995 37 1995 37 1996 37 1996 37 1997 37 1997 37 1998 37 1998 37 1999 37 1999 37 2000 37 2000 37 2001 37 2001 37 2002 37 2002 37 2003 37 2003 37 2004 37 2004 37 2005 37 2005 37 2006 37 2006 37 2007 37 2007 37 2008 37 2008 37 2009 37 2009 37 2010 37 2010 37 2011 37 2011 37 2012 37 2012 37 2013 37 2013 37 2014 37 2014 37 2015 37 2015 37 2016 37 2016 37 2017 37 2017 37 2018 37 2018 37 2019 37 2019 37 2020 37 2020 37 2021 37 2021 37 2022 37 2022 37 2023 37 2023 37 2024 37 2024 37 2025 37 2025 37 2026 37 2026 37 2027 37 2027 37 2028 37 2028 37 2029 37 2029 37 2030 37 2030 37 2031 37 2031 37 2032 37 2032 37 2033 37 2033 37 2034 37 2034 37 2035 37 2035 37 2036 37 2036 37 2037 37 2037 37 2038 37 2038 37 2039 37 2039 37 2040 37 2040 37 2041 37 2041 37 2042 37 2042 37 2043 37 2043 37 2044 37 2044 37 2045 37 2045 37 2046 37 2046 37 2047 37 2047 37 2048 37 2048 37 2049 37 2049 37 2050 37 2050 37 2051 37 2051 37 2052 37 2052 37 2053 37 2053 37 2054 37 2054 37 2055 37 2055 37 2056 37 2056 37 2057 37 2057 37 2058 37 2058 37 2059 37 2059 37 2060 37 2060 37 2061 37 2061 37 2062 37 2062 37 2063 37 2063 37 2064 37 2064 37 2065 37 2065 37 2066 37 2066 37 2067 37 2067 37 2068 37 2068 37 2069 37 2069 37 2070 37 2070 37 2071 37 2071 37 2072 37 2072 37 2073 37 2073 37 2074 37 2074 37 2075 37 2075 37 2076 37 2076 37 2077 37 2077 37 2078 37 2078 37 2079 37 2079 37 2080 37 2080 37 2081 37 2081 37 2082 37 2082 37 2083 37 2083 37 2084 37 2084 37 2085 37 2085 37 2086 37 2086 37 2087 37 2087 37 2088 37 2088 37 2089 37 2089 37 2090 37 2090 37 2091 37 2091 37 2092 37 2092 37 2093 37 2093 37 2094 37 2094 37 2095 37 2095 37 2096 37 2096 37 2097 37 2097 37 2098 37 2098 37 2099 37 2099 37 2100 37 2100 37 2101 37 2101 37 2102 37 2102 37 2103 37 2103 37 2104 37 2104 37 2105 37 2105 37 2106 37 2106 37 2107 37 2107 37 2108 37 2108 37 2109 37 2109 37 2110 37 2110 37 2111 37 2111 37 2112 37 2112 37 2113 37 2113 37 2114 37 2114 37 2115 37 2115 37 2116 37 2116 37 2117 37 2117 37 2118 37 2118 37 2119 37 2119 37 2120 37 2120 37 2121 37 2121 37 2122 37 2122 37 2123 37 2123 37 2124 37 2124 37 2125 37 2125 37 2126 37 2126 37 2127 37 2127 37 2128 37 2128 37 2129 37 2129 37 2130 37 2130 37 2131 37 2131 37 2132 37 2132 37 2133 37 2133 37 2134 37 2134 37 2135 37 2135 37 2136 37 2136 37 2137 37 2137 37 2138 37 2138 37 2139 37 2139 37 2140 37 2140 37 2141 37 2141 37 2142 37 2142 37 2143 37 2143 37 2144 37 2144 37 2145 37 2145 37 2146 37 2146 37 2147 37 2147 37 2148 37 2148 37 2149 37 2149 37 2150 37 2150 37 2151 37 2151 37 2152 37 2152 37 2153 37 2153 37 2154 37 2154 37 2155 37 2155 37 2156 37 2156 37 2157 37 2157 37 2158 37 2158 37 2159 37 2159 37 2160 37 2160 37 2161 37 2161 37 2162 37 2162 37 2163 37 2163 37 2164 37 2164 37 2165 37 2165 37 2166 37 2166 37 2167 37 2167 37 2168 37 2168 37 2169 37 2169 37 2170 37 2170 37 2171 37 2171 37 2172 37 2172 37 2173 37 2173 37 2174 37 2174 37 2175 37 2175 37 2176 37 2176 37 2177 37 2177 37 2178 37 2178 37 2179 37 2179 37 2180 37 2180 37 2181 37 2181 37 2182 37 2182 37 2183 37 2183 37 2184 37 2184 37 2185 37 2185 37 2186 37 2186 37 2187 37 2187 37 2188 37 2188 37 2189 37 2189 37 2190 37 2190 37 2191 37 2191 37 2192 37 2192 37 2193 37 2193 37 2194 37 2194 37 2195 37 2195 37 2196 37 2196 37 2197 37 2197 37 2198 37 2198 37 2199 37 2199 37 2200 37 2200 37 2201 37 2201 37 2202 37 2202 37 2203 37 2203 37 2204 37 2204 37 2205 37 2205 37 2206 37 2206 37 2207 37 2207 37 2208 37 2208 37 2209 37 2209 37 2210 37 2210 37 2211 37 2211 37 2212 37 2212 37 2213 37 2213 37 2214 37 2214 37 2215 37 2215 37 2216 37 2216 37 2217 37 2217 37 2218 37 2218 37 2219 37 2219 37 2220 37 2220 37 2221 37 2221 37 2222 37 2222 37 2223 37 2223 37 2224 37 2224 37 2225 37 2225 37 2226 37 2226 37 2227 37 2227 37 2228 37 2228 37 2229 37" transform="translate(0,110)" style="stroke:rgb(40,24,144);stroke-width:1;fill:none;" />
 </g>
</svg>
